<?xml version="1.0" encoding="UTF-8" standalone="no"?>
<!-- Created with Inkscape (http://www.inkscape.org/) -->

<svg
   xmlns:dc="http://purl.org/dc/elements/1.1/"
   xmlns:cc="http://creativecommons.org/ns#"
   xmlns:rdf="http://www.w3.org/1999/02/22-rdf-syntax-ns#"
   xmlns:svg="http://www.w3.org/2000/svg"
   xmlns="http://www.w3.org/2000/svg"
   xmlns:sodipodi="http://sodipodi.sourceforge.net/DTD/sodipodi-0.dtd"
   xmlns:inkscape="http://www.inkscape.org/namespaces/inkscape"
   width="178.47609mm"
   height="72.041077mm"
   viewBox="0 0 632.39559 255.26365"
   id="svg4137"
   version="1.1"
   inkscape:version="0.91 r13725"
   sodipodi:docname="nc-love.svg">
  <defs
     id="defs4139" />
  <sodipodi:namedview
     id="base"
     pagecolor="#ffffff"
     bordercolor="#666666"
     borderopacity="1.0"
     inkscape:pageopacity="0.0"
     inkscape:pageshadow="2"
     inkscape:zoom="0.7"
     inkscape:cx="100.39728"
     inkscape:cy="84.022703"
     inkscape:document-units="px"
     inkscape:current-layer="layer1"
     showgrid="false"
     fit-margin-top="0"
     fit-margin-left="0"
     fit-margin-right="0"
     fit-margin-bottom="0"
     inkscape:window-width="1406"
     inkscape:window-height="810"
     inkscape:window-x="499"
     inkscape:window-y="111"
     inkscape:window-maximized="0" />
  <metadata
     id="metadata4142">
    <rdf:RDF>
      <cc:Work
         rdf:about="">
        <dc:format>image/svg+xml</dc:format>
        <dc:type
           rdf:resource="http://purl.org/dc/dcmitype/StillImage" />
        <dc:title></dc:title>
      </cc:Work>
    </rdf:RDF>
  </metadata>
  <g
     inkscape:label="Layer 1"
     inkscape:groupmode="layer"
     id="layer1"
     transform="translate(-45.09375,-338.8719)">
    <path
       style="fill:#000000"
       d="m 256.68164,338.87193 -2.31055,2.89844 c -1.4148,1.77432 -3.03723,6.47204 -4.18164,12.10937 l -1.86914,9.21094 -3.80469,-0.0996 c -6.49107,-0.1702 -13.13942,5.97876 -22.35937,20.68164 -0.45044,0.7183 -2.75753,0.26238 -6.64258,-1.31445 -4.89637,-1.98729 -6.41617,-2.20469 -8.58008,-1.21875 -1.44648,0.65906 -3.5941,1.19922 -4.77343,1.19922 -1.24762,0 -4.95333,2.8639 -8.86133,6.84961 -5.17857,5.28155 -7.41063,6.85156 -9.74414,6.85156 -2.76075,0 -2.98415,-0.2775 -2.5625,-3.15039 0.86699,-5.90716 -6.26323,-5.55935 -11.88672,0.58008 -2.73479,2.98569 -4.06941,3.62304 -7.58789,3.62304 -4.15674,0 -4.28772,0.11086 -4.93555,4.16211 -0.36596,2.28858 -1.7967,5.47616 -3.17969,7.08399 -2.16905,2.52165 -3.20893,2.89294 -7.57031,2.70312 -4.62053,-0.2011 -6.01475,0.39868 -16.1875,6.96484 -19.6643,12.69265 -17.2391,11.7775 -29.26367,11.04493 -10.200504,-0.62144 -10.638674,-0.55898 -11.328124,1.61328 -0.54424,1.71475 -1.56362,2.25976 -4.228517,2.25976 -2.91813,0 -4.420249,0.99383 -8.886719,5.88086 -4.07677,4.46064 -5.378425,6.68735 -5.390625,9.22071 -0.02768,5.72961 -1.185387,6.50195 -9.742187,6.50195 -5.48205,0 -8.514356,0.51875 -10.447266,1.78516 -2.77857,1.82049 -2.83918,2.03736 -4.59375,16.3164 l -0.669922,5.45508 4.566406,0.57813 c 6.32861,0.80234 56.799254,2.74618 71.207034,2.74218 9.84666,-0.003 13.78343,-0.53249 23.40429,-3.14844 6.36181,-1.72979 12.33257,-2.85098 13.26758,-2.49218 0.95234,0.36545 2.973,-0.29051 4.59571,-1.49024 1.59319,-1.17789 6.65796,-3.21797 11.2539,-4.5332 10.99623,-3.14682 26.22921,-3.60646 49.98438,-1.51172 54.30302,4.78847 63.47732,6.43267 59.90234,10.74024 -1.71137,2.06208 -0.56059,2.65723 2.72461,1.4082 4.56641,-1.73615 5.14582,-1.38723 9.17578,5.52344 3.43074,5.88311 3.77326,7.1426 3.29102,12.09961 l -0.53907,5.5332 3.56055,0.0137 c 6.87111,0.0289 79.23966,3.1259 79.41406,3.39844 0.097,0.15157 15.62616,18.09674 34.50977,39.8789 18.88362,21.78216 35.48916,40.94888 36.90234,42.5918 l 2.57032,2.98633 11.45312,-2.41406 c 10.89119,-2.29663 21.80617,-2.55894 26.82422,-0.64258 1.03057,0.39357 2.49724,-0.74538 4.21484,-3.27539 2.15816,-3.17896 2.65318,-5.22849 2.73828,-11.33008 0.14197,-10.18986 0.26717,-11.13672 1.47657,-11.13672 1.60228,0 1.25915,11.63398 -0.51563,17.48438 -0.86316,2.84534 -1.57408,6.18532 -1.58008,7.42187 -0.007,1.356 -0.84792,2.4664 -2.11914,2.79883 -1.15925,0.30316 -2.10742,1.06923 -2.10742,1.70312 0,1.5853 4.76019,1.45729 6.09375,-0.16406 1.52368,-1.85249 9.77306,-20.89921 10.15625,-23.44922 0.47222,-3.14254 4.98838,-11.96033 7.98828,-15.59765 6.11779,-7.41773 12.19196,-12.40575 20.13672,-16.53907 8.57234,-4.45982 10.61187,-6.56392 8.45703,-8.71875 -1.81822,-1.81822 -1.43134,-4.44569 0.97461,-6.62304 l 2.16797,-1.96094 -2.16797,-0.80273 c -1.40619,-0.52019 -2.16797,-1.73982 -2.16797,-3.47071 0,-2.17717 0.50894,-2.66797 2.76368,-2.66797 2.36068,0 2.5683,0.23467 1.42578,1.61133 -1.10535,1.33188 -0.95829,2.01719 0.8457,3.95117 l 2.18359,2.3418 -2.10937,2.58789 c -2.00545,2.46053 -2.01766,2.65774 -0.2461,3.95313 2.47043,1.80642 4.54936,1.72374 5.29102,-0.20899 0.33157,-0.86408 2.92582,-3.27671 5.76562,-5.36133 2.83983,-2.08462 5.45174,-4.93354 5.80274,-6.33203 0.74443,-2.96606 2.00873,-3.26226 3.39062,-0.79297 0.91274,1.63098 1.58044,1.6298 9.80079,-0.002 4.85163,-0.96305 10.03172,-1.75045 11.50976,-1.75 3.53009,0.001 5.57933,-1.97949 4.00781,-3.87305 -0.76953,-0.92724 -0.78946,-1.39453 -0.0605,-1.39453 2.49982,0 4.42968,1.39864 4.42968,3.21094 0,4.31598 3.46909,3.25531 4.61133,-1.41016 0.40953,-1.67269 1.1978,-2.64543 1.82813,-2.25586 0.60959,0.37675 0.82438,1.81926 0.47656,3.20508 -1.0899,4.34252 2.98774,3.20161 5.125,-1.43359 1.89991,-4.12046 7.76391,-8.69336 11.14648,-8.69336 2.05296,0 3.7719,-3.42619 2.63868,-5.25977 -0.36143,-0.58481 0.0827,-1.06445 0.98632,-1.06445 1.17513,0 1.64258,-1.04933 1.64258,-3.6875 0,-2.02869 -0.199,-3.68945 -0.4414,-3.68945 -0.24241,0 -1.26737,-0.31676 -2.2793,-0.70508 -1.22388,-0.46965 -1.59474,-0.30728 -1.10547,0.48437 1.04272,1.68716 -1.59296,5.49024 -3.80469,5.49024 -1.88456,0 -2.28568,-1.64926 -1.87695,-7.73438 0.16054,-2.39014 -0.18809,-2.91666 -1.73242,-2.61328 -1.53961,0.30246 -1.9336,1.3663 -1.9336,5.21875 0,4.77604 -0.0304,4.81756 -2.37109,3.28125 -2.20494,-1.44721 -2.37109,-1.39797 -2.37109,0.69727 0,2.15045 -0.11763,2.17522 -2.58789,0.55664 -2.9912,-1.95991 -4.78907,-1.26851 -4.78907,1.83984 0,1.82539 -0.25605,1.96077 -1.59961,0.84571 -1.30995,-1.08716 -1.981,-0.98521 -3.69336,0.56445 -1.61733,1.46367 -2.62932,1.65834 -4.45898,0.85351 -1.30181,-0.57263 -3.77881,-1.00488 -5.50391,-0.95898 -2.86418,0.0763 -3.43816,-0.54608 -6.61523,-7.17578 -1.91354,-3.99308 -3.29935,-7.44088 -3.07812,-7.66211 0.22122,-0.22122 2.47895,1.73988 5.01757,4.35937 5.64822,5.82816 10.21671,7.09725 13.73828,3.81641 1.30601,-1.21674 3.08544,-2.21094 3.95313,-2.21094 1.85887,0 6.45508,-4.07771 6.45508,-5.72656 0,-0.62897 0.95012,-1.73698 2.10937,-2.46094 2.31317,-1.4446 2.89088,-4.6538 0.78907,-4.38086 -0.72454,0.0941 -2.21923,0.11558 -3.32227,0.0469 -1.84358,-0.11477 -1.80797,-0.29717 0.44141,-2.24805 1.44875,-1.25649 3.23056,-1.87309 4.36914,-1.51172 1.40346,0.44541 1.76075,0.18489 1.32031,-0.96289 -0.46013,-1.19905 -0.044,-1.42669 1.75195,-0.95703 2.2061,0.57691 2.31459,0.36471 1.70899,-3.36719 -0.76398,-4.70782 -0.39576,-4.30986 -4.75586,-5.14062 -3.13644,-0.59759 -3.42333,-0.45375 -2.82617,1.42773 0.51959,1.63706 0.18088,2.09571 -1.55079,2.09571 -1.86415,0 -2.0428,-0.32415 -1.125,-2.03907 1.54094,-2.87928 1.3974,-3.23046 -1.31054,-3.23046 -1.32025,0 -3.2125,-0.94818 -4.20508,-2.10743 -0.99258,-1.15925 -3.02278,-2.10742 -4.51172,-2.10742 -1.48894,0 -2.42162,-0.45939 -2.07422,-1.02148 0.69099,-1.11805 -5.93727,-4.24805 -8.99609,-4.24805 -1.04899,0 -2.96336,-1.48252 -4.25391,-3.29492 l -2.3457,-3.29492 2.84375,1.86328 c 1.56453,1.02512 4.84148,2.27513 7.28125,2.77929 8.64186,1.78575 9.76195,2.06367 15.22461,3.76563 3.036,0.9459 5.80815,1.43208 6.16015,1.08008 1.15862,-1.15861 -0.7495,-7.11328 -2.27929,-7.11328 -0.82337,0 -1.4961,-0.98264 -1.4961,-2.1836 0,-2.04081 0.39502,-2.13557 6.0586,-1.44922 7.24811,0.87838 7.64062,1.06655 7.64062,3.69336 0,1.57024 -0.73318,2.04688 -3.16015,2.04688 -3.8228,0 -3.95957,1.0621 -0.63282,4.92969 l 2.5293,2.9414 2.19141,-2.61914 c 1.86373,-2.2263 2.34938,-2.38132 3.25,-1.03711 1.54513,2.30616 1.32458,4.21485 -0.48828,4.21485 -0.86944,0 -1.58204,0.47505 -1.58204,1.05468 0,0.57962 1.15446,1.05468 2.56446,1.05469 1.73271,0 2.80702,-0.77041 3.3164,-2.37305 l 0.75391,-2.37109 1.0918,2.44531 c 0.75987,1.70111 1.70967,2.28079 3.12695,1.91016 1.11971,-0.29281 2.91809,0.0182 3.99609,0.69141 1.50178,0.93789 2.26282,0.92274 3.25196,-0.0664 0.71002,-0.71002 2.50755,-1.29102 3.99414,-1.29102 2.0596,0 3.07485,-0.84771 4.26757,-3.5625 0.86091,-1.9595 4.82762,-7.01409 8.81641,-11.23242 6.64172,-7.02393 7.43584,-7.55597 9.42383,-6.31445 1.90507,1.18974 2.45251,1.02856 4.47461,-1.32227 1.55633,-1.80935 2.13513,-3.56327 1.7832,-5.40429 -0.39943,-2.08949 -0.0918,-2.72657 1.31836,-2.72657 1.59847,0 1.74743,-0.69229 1.13867,-5.28125 -1.23201,-9.28733 -4.65095,-18.75519 -7.04687,-19.51562 -2.7248,-0.86482 -7.27735,0.22745 -7.27735,1.74609 0,0.65962 1.00875,0.90115 2.3711,0.56836 2.76424,-0.67522 7.35696,2.05922 4.9043,2.91992 -0.81352,0.28549 -3.37682,0.65514 -5.69532,0.82032 l -4.21484,0.30078 -2.25195,10.85742 c -1.23852,5.97211 -2.52114,11.12661 -2.84961,11.45508 -0.88212,0.88212 -5.1294,-0.37959 -7.54493,-2.24219 -1.97121,-1.51998 -1.81771,-1.58238 2.3711,-0.96484 3.74999,0.55285 4.47851,0.37296 4.47851,-1.10547 0,-0.97119 -1.25536,-2.93019 -2.78906,-4.35157 -2.67517,-2.47926 -2.69506,-2.58398 -0.52539,-2.58398 1.65737,0 2.26172,-0.64754 2.26172,-2.42383 0,-1.33314 -0.57007,-2.99195 -1.26563,-3.6875 -0.9836,-0.9836 -0.52963,-1.26562 2.04493,-1.26562 4.60241,0 5.23329,-1.78061 1.40234,-3.96094 -3.75494,-2.13705 -4.14456,-3.41602 -1.04102,-3.41602 1.29508,0 2.01091,-0.53936 1.74415,-1.3164 -0.50453,-1.46956 -9.30329,-1.7119 -15.74805,-0.4336 -3.01593,0.5982 -3.75471,1.16209 -3.24805,2.48243 0.5538,1.44319 0.10611,1.60051 -2.87695,1.0039 -1.94303,-0.38861 -4.34168,-1.44164 -5.33203,-2.33789 -1.62534,-1.47093 -2.19459,-1.46499 -5.84571,0.0605 -2.2247,0.92953 -6.81721,2.06988 -10.20507,2.5332 -5.94428,0.81293 -6.13548,0.76527 -5.45118,-1.36523 0.39,-1.21425 0.62688,-7.28876 0.52539,-13.49805 -0.17501,-10.71083 1.26222,-18.74414 3.35352,-18.74414 1.21739,0 1.05877,1.76285 -0.87305,9.72461 -2.22059,9.15185 -1.14092,11.06768 7.81641,13.87109 7.02655,2.19913 9.70703,1.80392 9.70703,-1.43164 0,-1.66655 0.68683,-2.14062 3.09961,-2.14062 3.62083,0 4.97936,-1.57151 3.20703,-3.70703 -1.02889,-1.23974 -0.36946,-1.20808 3.71484,0.18359 3.94702,1.34488 5.13303,1.4189 5.78907,0.35742 0.52302,-0.84627 1.83039,-1.08366 3.57226,-0.64648 2.12524,0.5334 2.74805,0.29893 2.74805,-1.03907 0,-1.39508 0.29755,-1.48414 1.53516,-0.45703 1.69602,1.40758 3.73437,0.64418 3.73437,-1.39843 0,-0.72175 -1.41255,-3.53798 -3.13867,-6.25977 -3.6587,-5.76919 -2.27692,-6.51605 2.5625,-1.38477 3.49416,3.70489 10.06055,7.70128 10.06055,6.12305 0,-0.49791 -0.34271,-1.24895 -0.76172,-1.66797 -0.41902,-0.41901 -0.86915,-2.4351 -1,-4.48047 l -0.23828,-3.71875 2.53906,2.53907 c 1.46507,1.46508 2.84116,4.42861 3.25391,7.00976 0.69076,4.31981 2.68578,7.49219 4.71289,7.49219 1.44102,0 1.20991,-1.52522 -0.9961,-6.55859 -3.5031,-7.99287 -4.6314,-11.76614 -5.28711,-17.67969 -0.54276,-4.89487 -0.82619,-5.48857 -1.81836,-3.81055 -1.04899,1.77411 -1.37052,1.47419 -3.0039,-2.80273 -1.1856,-3.10448 -2.62085,-4.99588 -4.07813,-5.37696 -2.19468,-0.57393 -2.20048,-0.62446 -0.22851,-2.0664 1.71138,-1.25139 1.86272,-2.02152 0.99218,-5.03907 -1.23966,-4.29705 5.03625,-4.0926 -60.47851,-1.96874 -31.91234,1.03453 -82.84953,1.55554 -152.28516,1.56054 -110.87047,0.007 -140.45693,-0.83177 -172.25,-4.88867 l -17.33203,-2.21289 z m 236.13477,25.95508 c 7.13246,0.0732 14.35902,3.83989 18.08984,11.26367 2.36705,4.71006 2.62629,14.7665 0.52734,20.43164 -2.73801,7.38997 -7.88153,13.0247 -19.76953,21.6582 -7.79634,5.662 -16.62013,14.22843 -17.23437,15.43164 -0.71303,1.39671 -0.0325,0.21835 -3.18164,-3.31054 -1.66038,-1.86062 -5.80606,-5.48778 -9.21289,-8.06055 -10.09415,-7.6229 -11.46797,-8.72614 -15.56641,-12.5 -7.55572,-6.95734 -10.7649,-13.94615 -10.75391,-23.42383 0.005,-4.62662 0.31959,-6.40956 1.61524,-9.13672 2.19818,-4.62685 5.43637,-8.0652 9.57617,-10.16797 2.93208,-1.48932 4.37902,-2.15066 9.27539,-2.17773 5.12196,-0.0283 6.19997,0.5694 9.21289,2.22461 3.66724,2.01467 7.4424,6.32033 8.22266,9.37891 l 0.48047,1.88867 1.18945,-2.60156 c 3.35789,-7.35105 10.39683,-10.97161 17.5293,-10.89844 z m 148.53125,16.82031 c 0.12597,0.0212 0.26329,0.0745 0.4082,0.16406 0.57962,0.35823 1.05469,0.86158 1.05469,1.11719 0,0.2556 -0.47507,0.46484 -1.05469,0.46484 -0.57963,0 -1.05274,-0.50335 -1.05274,-1.11718 10e-6,-0.46038 0.26662,-0.69245 0.64454,-0.62891 z m -134,194.60156 c 0.24798,0 -0.77823,2.7277 -2.28125,6.06055 -3.07465,6.81785 -3.47461,7.47021 -3.47461,5.67383 0,-1.42401 5.0573,-11.73438 5.75586,-11.73438 z"
       id="path4696"
       inkscape:connector-curvature="0" />
    <g
       transform="matrix(0.12053571,0,0,0.12053571,419.56736,313.29681)"
       id="g2221" />
  </g>
</svg>
