<?xml version="1.0" encoding="UTF-8" standalone="no"?>
<!-- Created with Inkscape (http://www.inkscape.org/) -->

<svg
   xmlns:dc="http://purl.org/dc/elements/1.1/"
   xmlns:cc="http://creativecommons.org/ns#"
   xmlns:rdf="http://www.w3.org/1999/02/22-rdf-syntax-ns#"
   xmlns:svg="http://www.w3.org/2000/svg"
   xmlns="http://www.w3.org/2000/svg"
   xmlns:sodipodi="http://sodipodi.sourceforge.net/DTD/sodipodi-0.dtd"
   xmlns:inkscape="http://www.inkscape.org/namespaces/inkscape"
   width="190.6649mm"
   height="162.1778mm"
   viewBox="0 0 675.58429 574.64573"
   id="svg4733"
   version="1.1"
   inkscape:version="0.91 r13725"
   sodipodi:docname="our-durm-wedding.svg">
  <defs
     id="defs4735" />
  <metadata
     id="metadata4738">
    <rdf:RDF>
      <cc:Work
         rdf:about="">
        <dc:format>image/svg+xml</dc:format>
        <dc:type
           rdf:resource="http://purl.org/dc/dcmitype/StillImage" />
        <dc:title></dc:title>
      </cc:Work>
    </rdf:RDF>
  </metadata>
  <g
     inkscape:groupmode="layer"
     id="layer2"
     inkscape:label="heart"
     style="display:inline"
     transform="translate(-101.55664,-27.809343)">
    <path
       style="fill:#B32C06"
       d="m 610.87891,27.818359 c -43.00764,-0.441216 -85.60225,15.311628 -116.36329,47.363282 0.28536,-4.84803 0.36203,-9.511787 0.22461,-13.986329 -0.18469,-6.01393 -0.89653,-11.348038 -2.13476,-16.003906 -0.83664,-3.145856 -1.84103,-5.910147 -3.01367,-8.292968 -0.73455,-1.510453 -1.58859,-2.832998 -2.5586,-3.972657 0.9744,4.233467 1.54487,8.989061 1.70703,14.269531 0.1847,6.013932 -0.0128,12.366078 -0.59179,19.054688 -0.5161,6.671877 -1.3229,13.520871 -2.41797,20.548828 -1.11181,6.965039 -2.32714,13.790692 -3.64844,20.474612 -1.33804,6.621 -2.72943,12.91944 -4.17187,18.89453 -1.37953,5.95837 -2.6103,11.20363 -3.69532,15.73633 l 2.23828,0.81836 c 1.67605,-4.08358 3.60016,-8.50163 5.77149,-13.25586 2.17134,-4.75424 4.54358,-9.25875 7.11719,-13.51368 2.55686,-4.31783 5.24086,-8.03104 8.05273,-11.13671 2.85807,-3.18532 5.79639,-5.179252 8.81641,-5.982426 0.755,-0.200793 1.64641,-0.268671 2.67383,-0.205078 1.01068,6.67e-4 2.0262,0.269154 3.04492,0.806641 1.08163,0.520747 2.08909,1.397283 3.02343,2.630863 0.91765,1.17066 1.66156,2.82566 2.23047,4.96484 1.13784,4.27837 1.65272,8.62176 1.54493,13.0293 -0.12453,4.34462 -0.36711,8.75405 -0.72657,13.22851 -0.31327,4.39482 -0.50575,8.85921 -0.58007,13.39258 -0.0114,4.51664 0.59296,9.07111 1.81445,13.66406 0.66931,2.51668 1.58169,4.43102 2.73828,5.74024 1.15659,1.30922 2.33387,1.80425 3.5293,1.48633 1.51001,-0.40159 3.02911,-1.14365 4.56054,-2.22461 1.53144,-1.08096 3.01428,-2.35014 4.44532,-3.8086 1.43103,-1.45846 2.79646,-3.03511 4.09765,-4.72851 1.28446,-1.75632 2.46595,-3.51808 3.54492,-5.28711 0.88994,-1.40948 1.75161,-2.88634 2.59961,-4.39453 0.0379,-0.8416 0.0866,-1.68849 0.15821,-2.54297 0.44462,-5.30324 1.42364,-10.56942 2.93945,-15.79883 1.5044,-5.29351 3.47761,-10.37136 5.91797,-15.23633 2.50444,-4.87638 5.39463,-9.26096 8.66992,-13.15039 3.27529,-3.889425 6.86225,-7.140087 10.76172,-9.751952 3.95216,-2.687371 8.13984,-4.42364 12.5625,-5.210938 1.47422,-0.262433 2.67929,-0.18049 3.61523,0.248047 0.93595,0.428537 1.72922,0.982279 2.37891,1.660156 0.70238,0.602369 1.37148,1.210439 2.00976,1.824219 0.63829,0.61378 1.37106,1.013699 2.19727,1.197266 0.82621,0.183559 1.63581,0.270445 2.42773,0.261718 0.84467,-0.08424 1.68238,-0.201282 2.51563,-0.349609 l 2.11523,-0.376953 c 0.75775,-0.201014 1.49026,-0.362764 2.19532,-0.488282 0.96144,-0.171153 1.8747,-0.235366 2.74218,-0.191406 0.86749,0.04393 1.68049,0.328582 2.43555,0.855469 0.75507,0.526867 1.39406,1.33886 1.91992,2.435547 0.58996,1.085273 1.06231,2.622382 1.41602,4.609375 0.54769,3.076633 0.83691,6.563193 0.86914,10.458983 0.0208,3.8317 10e-4,7.80121 -0.0606,11.91211 -0.0731,4.04681 -0.0762,8.11505 -0.01,12.20313 0.0551,4.02398 0.39589,7.7989 1.02343,11.32421 0.53628,3.01254 1.21431,5.33919 2.03516,6.97852 0.87353,1.56381 2.2092,2.18471 4.00391,1.86523 1.34602,-0.23961 2.69848,-0.81144 4.05859,-1.71484 1.34871,-0.96749 2.66311,-2.12647 3.94336,-3.47851 1.34434,-1.36349 2.63453,-2.84858 3.86914,-4.45704 1.28729,-1.68396 2.47109,-3.38382 3.55469,-5.09765 1.24837,-1.98799 2.48562,-4.0887 3.71094,-6.29883 0.0201,-0.59517 0.0291,-1.16344 0.0527,-1.76758 0.15923,-4.06681 0.37698,-8.20401 0.6543,-12.41211 0.33636,-4.27874 0.69134,-8.36228 1.0625,-12.25195 0.436,-3.89546 0.90053,-7.467832 1.39453,-10.714845 0.49399,-3.247013 0.97467,-5.90446 1.44336,-7.972656 0.46288,-2.133042 0.93086,-3.840747 1.40429,-5.125 0.47343,-1.284253 1.03806,-2.281898 1.69336,-2.994141 0.71436,-0.782887 1.58144,-1.318149 2.60157,-1.605469 1.01433,-0.352165 2.33199,-0.601119 3.95312,-0.746093 2.46413,-0.22036 4.38648,-0.295415 5.76563,-0.222657 1.4382,0.0021 2.51035,0.300181 3.21679,0.890625 0.7655,0.51982 1.26593,1.3561 1.5,2.511719 0.23407,1.155619 0.44132,2.739793 0.6211,4.75 0.0986,1.102372 0.14664,2.37235 0.14453,3.810547 0.0627,1.432397 0.0691,2.966935 0.0195,4.605469 -0.0495,1.638533 -0.12568,3.34512 -0.22852,5.11914 -0.0437,1.703374 -0.12384,3.377151 -0.23828,5.021481 -0.24147,3.87807 -0.50399,7.88995 -0.78711,12.03321 l 1.17578,1.07031 c 0.1123,-0.20613 0.68185,-1.49914 1.71094,-3.87891 l 3.93945,-8.58789 c 1.59637,-3.345576 3.31003,-6.832762 5.14258,-10.460935 1.82676,-3.693015 3.59318,-6.95448 5.30078,-9.787109 1.64276,-2.826832 3.42527,-5.210093 5.34375,-7.146485 1.98333,-1.942191 4.43353,-3.043734 7.35157,-3.304687 2.7235,-0.243556 5.13036,0.359474 7.2207,1.80664 2.08453,1.382321 3.25662,3.531177 3.51758,6.449219 0.22616,2.528971 0.27946,4.943604 0.1582,7.242188 -0.12127,2.298585 -0.34643,4.540275 -0.67383,6.726562 -0.26254,2.180493 -0.55937,4.331671 -0.89257,6.453127 -0.339,2.0566 -0.6398,4.17497 -0.90235,6.35547 -0.19085,1.52044 -0.30198,2.47818 -0.33203,2.87304 -0.0301,0.39488 -0.0389,0.65742 -0.0273,0.78711 l 1.17382,1.07227 c 0.1123,-0.20613 0.75143,-1.47231 1.91602,-3.79883 1.15879,-2.39137 2.5673,-5.26384 4.22852,-8.615234 1.72606,-3.357193 3.53613,-6.885171 5.42773,-10.583984 1.95645,-3.704617 3.78849,-6.972058 5.49609,-9.804688 1.24072,-2.078692 2.50174,-3.918324 3.78516,-5.519531 C 693.22518,43.368368 651.868,28.238868 610.87891,27.818359 Z m -303.93555,0.06641 c -40.62178,0.224581 -52.61991,5.71453 -76.94531,18.070312 -34.34505,17.44521 -61.20862,45.967874 -79.44532,84.353509 -7.11303,14.97192 -10.65841,26.53575 -12.25976,43.75586 5.06134,-2.93339 9.95346,-5.37222 14.66992,-7.29883 7.82534,-3.19648 15.17334,-5.24236 22.04492,-6.13671 6.92542,-0.93096 13.39039,-0.80161 19.39649,0.38867 5.96948,1.13644 11.50582,3.08236 16.60547,5.83398 5.06303,2.6978 9.68985,6.08584 13.88085,10.16406 4.24486,4.04163 8.05145,8.53762 11.41993,13.49024 4.61335,6.78293 8.54633,14.18552 11.79883,22.20898 3.21587,7.96962 5.6123,16.18241 7.18945,24.63672 1.57714,8.45431 2.20656,16.96323 1.88867,25.52539 -0.26405,8.52556 -1.64203,16.74402 -4.13281,24.65821 -2.49078,7.91418 -6.14277,15.27955 -10.95508,22.0957 -4.77569,6.86998 -10.90395,12.85012 -18.38672,17.93945 -2.53014,1.72086 -5.24261,3.28978 -8.13672,4.70703 -2.8941,1.41725 -5.79917,2.64535 -8.71484,3.6836 -2.91568,1.03825 -5.75146,1.90398 -8.50781,2.59765 -2.75636,0.69368 -5.26099,1.17747 -7.51563,1.45118 -0.84628,0.26065 -1.57767,0.40203 -2.19141,0.42578 -0.59651,-0.0667 -1.12992,-0.21494 -1.60156,-0.44532 -0.50824,-0.2842 -0.99068,-0.70421 -1.44726,-1.25976 -0.45659,-0.55555 -0.99671,-1.28992 -1.61914,-2.20508 -6.07792,-8.93625 -12.08719,-18.2347 -18.02735,-27.89453 -5.88633,-9.69643 -11.16744,-19.48874 -15.8457,-29.37695 -3.23169,-6.83067 -6.0176,-13.65701 -8.37891,-20.47852 9.98706,53.41095 36.79861,97.62579 84.63086,141.66992 34.00184,31.30902 45.40043,40.46129 129.14453,103.70313 28.26403,21.34443 62.65856,51.43868 76.4336,66.875 16.08541,18.0253 20.12326,28.62669 22.23828,31.43164 2.81902,-30.79221 6.78462,-74.16648 8.27148,-90.36524 3.68522,-40.14904 6.44027,-74.05461 6.12305,-75.3457 -0.3745,-1.5242 -1.75485,-2.5834 -3.93555,-3.01953 -4.07731,-0.81546 -5.31009,-3.41986 -2.88672,-6.09766 0.98624,-1.08978 1.79297,-3.75555 1.79297,-5.92383 0,-4.03449 1.32835,-5.28515 5.61914,-5.28515 2.05419,0 2.12222,-1.32603 2.11133,-41.75195 l -0.0117,-41.75391 -4.41406,-1.85352 c -2.42705,-1.01939 -4.41211,-2.34155 -4.41211,-2.93945 0,-0.5979 11.39795,-9.22133 25.32813,-19.16211 24.27363,-17.32198 25.30321,-18.20431 24.72851,-21.21289 -0.53634,-2.80787 -0.32015,-3.09929 2.04688,-2.76367 2.03213,0.28815 2.61309,1.01623 2.50781,3.13867 -0.1183,2.38598 3.32286,5.25988 25.16211,21.01367 13.91451,10.03725 25.29869,18.81019 25.29883,19.4961 3.6e-4,1.76544 -2.25965,3.42261 -5.92188,4.34179 l -3.14453,0.78907 0.62891,7.31835 c 0.34533,4.02513 0.64317,22.53485 0.66211,41.13086 l 0.0352,33.81055 3.59375,1.58203 c 2.8897,1.27188 3.66463,2.31978 3.95313,5.3418 0.19736,2.06758 1.08002,4.8587 1.96093,6.20312 1.86535,2.84691 0.75452,4.29375 -4.26171,5.55274 -1.66948,0.41903 -3.03516,1.19443 -3.03516,1.72461 0,0.53019 0.98865,9.80928 2.19727,20.61914 0.66102,5.91255 2.27886,20.80415 4.21484,38.7168 10.97866,-8.84317 22.07666,-17.41519 32.9375,-25.30274 98.62619,-71.62605 141.29059,-118.36836 164.00586,-179.67773 14.19888,-38.32329 15.38457,-100.86404 4.69336,-143.83594 -2.16267,2.10662 -4.45974,4.10359 -6.9043,5.97461 -2.93861,2.22371 -6.22995,4.15195 -9.875,5.78515 -3.65085,1.56842 -7.84246,2.56301 -12.57617,2.98633 -2.33443,0.20877 -4.3783,-0.3586 -6.13281,-1.70507 -1.69546,-1.41712 -3.1529,-3.44552 -4.36914,-6.08204 -1.21624,-2.63652 -2.21555,-5.7819 -3,-9.4375 -0.71962,-3.66139 -1.27358,-7.66512 -1.66211,-12.00976 -0.36534,-4.08526 -0.62104,-8.40834 -0.76758,-12.9707 -0.0875,-4.63305 -0.0817,-9.30623 0.0195,-14.02149 l -1.45898,0.12891 -15.24805,52.05468 c -1.44242,2.87428 -3.15841,4.89058 -5.14649,6.04883 -1.99386,1.0934 -4.35069,1.76231 -7.07422,2.00586 -2.07505,0.18557 -3.77873,-0.21875 -5.10937,-1.21094 -1.33645,-1.05704 -2.44067,-2.4282 -3.31055,-4.11523 -0.81082,-1.75769 -1.43988,-3.6958 -1.89062,-5.8125 -0.38591,-2.1225 -0.66984,-4.18901 -0.84961,-6.19922 -0.0754,-0.84299 -0.11747,-2.04735 -0.12695,-3.61523 -0.009,-1.56789 0.0259,-3.36895 0.10546,-5.40235 0.0796,-2.0334 0.18349,-4.16665 0.31055,-6.40039 0.12127,-2.29858 0.24408,-4.56509 0.37109,-6.79883 0.24939,-5.25142 0.62684,-10.90629 1.13086,-16.96484 L 685,109.3125 c -0.69116,1.04227 -1.46847,2.58099 -2.33203,4.61914 -0.79871,2.03235 -1.93864,5.01019 -3.41797,8.93359 -1.47933,3.9234 -3.37556,9.02868 -5.68945,15.31446 -2.25485,6.21512 -5.21649,14.02972 -8.88477,23.44336 -1.05915,2.77464 -2.42014,4.72621 -4.08398,5.85547 -1.6048,1.0586 -3.44449,1.68162 -5.51953,1.86718 -2.65867,0.23776 -4.84865,-0.12268 -6.56836,-1.08008 -1.72552,-1.02224 -3.12518,-2.43308 -4.20118,-4.23242 -0.63801,-1.17317 -1.17128,-2.45607 -1.62109,-3.82617 -0.44685,0.54715 -0.89272,1.09407 -1.36133,1.63672 -2.63164,3.04745 -5.55627,5.74926 -8.77343,8.10742 -3.21724,2.35816 -6.58798,3.85096 -10.11329,4.47852 -4.23037,0.75306 -7.99545,0.0357 -11.29492,-2.1543 -3.31088,-2.2541 -6.45437,-5.7944 -9.42969,-10.62109 -1.21882,2.06854 -2.78477,4.23208 -4.69726,6.49023 -1.91249,2.25815 -4.07594,4.39457 -6.49414,6.41211 -2.36553,1.94203 -4.90595,3.65205 -7.61914,5.12695 -2.71319,1.4749 -5.51214,2.46897 -8.39649,2.98243 -3.07663,0.54768 -6.19805,0.47421 -9.36328,-0.21875 -3.11254,-0.76848 -5.9943,-2.1075 -8.64844,-4.01563 -2.34034,-1.73159 -4.4011,-3.89434 -6.18164,-6.49023 -0.23436,0.28343 -0.44367,0.54655 -0.68554,0.83593 -1.69142,1.99928 -3.56306,4.08155 -5.61524,6.24414 -2.05218,2.1626 -4.17624,4.17629 -6.375,6.04102 -2.15258,1.78509 -4.38723,3.38819 -6.70312,4.8125 -2.25298,1.40759 -4.51233,2.41324 -6.77735,3.01562 -3.46044,0.92032 -6.72225,0.81043 -9.78711,-0.32812 -3.01866,-1.21821 -5.7225,-3.02371 -8.11132,-5.41992 -2.40556,-2.45914 -4.46992,-5.27899 -6.19141,-8.45899 -1.72149,-3.18 -2.98393,-6.28076 -3.78711,-9.30078 -0.53545,-2.01334 -0.8781,-4.31275 -1.02734,-6.90039 -0.10306,-2.66728 -0.11111,-5.36064 -0.0254,-8.07812 0.1486,-2.73422 0.37763,-5.42262 0.68554,-8.06446 0.37083,-2.65858 0.71337,-5.03949 1.0293,-7.14453 0.37886,-2.12177 0.72391,-3.86381 1.03516,-5.22656 0.31124,-1.36275 0.53527,-2.1634 0.67382,-2.40234 l -2.05664,0.24414 c -0.88552,0.97654 -2.24173,3.22291 -4.06836,6.74023 -1.76371,3.50058 -3.67235,7.84831 -5.72656,13.04297 -2.07094,5.13173 -4.11725,10.86218 -6.13867,17.19336 -1.97523,6.25153 -3.58636,12.60861 -4.83203,19.07031 -0.6312,3.1994 -1.10214,5.98594 -1.41406,8.35938 -0.32866,2.31052 -0.74901,4.27412 -1.26172,5.89258 -0.46654,1.53878 -1.11098,2.78823 -1.9336,3.74804 -0.82261,0.95982 -2.02082,1.65004 -3.59375,2.06836 -2.07626,0.55219 -3.87141,0.38922 -5.38476,-0.48828 -1.51335,-0.87751 -2.84235,-2.20713 -3.99024,-3.99023 -1.16462,-1.84602 -2.17709,-4.00227 -3.03515,-6.46875 -0.85807,-2.46649 -1.63903,-5.02155 -2.3418,-7.66407 -0.87436,-3.28766 -2.09818,-8.03348 -3.35156,-12.90039 -0.84709,0.98527 -1.73529,1.96852 -2.66602,2.95117 -1.86312,1.92475 -3.90391,3.74137 -6.12304,5.44922 -2.1802,1.62443 -4.55536,2.9051 -7.125,3.83985 -4.58865,1.66919 -8.62343,2.09683 -12.10547,1.28515 -3.5043,-0.87286 -6.62669,-2.50729 -9.36914,-4.90429 -2.76471,-2.45818 -5.22398,-5.40879 -7.37696,-8.85157 -2.17523,-3.50395 -4.20998,-7.09507 -6.10156,-10.77148 l -1.4668,0.53516 0.23047,51.76953 c 0.0115,2.69767 -0.0918,4.98712 -0.30859,6.86718 -0.17778,1.79662 -0.48456,3.32942 -0.92383,4.59766 -0.43927,1.26824 -1.04079,2.28281 -1.80273,3.04492 -0.7842,0.70093 -1.72686,1.25174 -2.82813,1.65235 -2.50846,0.91249 -4.7171,1.12627 -6.625,0.64257 -1.93015,-0.54487 -3.64647,-1.54707 -5.14844,-3.00976 -1.46304,-1.54613 -2.75929,-3.39638 -3.88867,-5.54883 -0.51152,-1.04884 -0.99943,-2.12339 -1.46679,-3.21875 -0.39615,0.65742 -0.80462,1.32172 -1.23243,1.99414 -1.58969,2.56297 -3.38451,5.14985 -5.38281,7.76367 -1.93955,2.58577 -3.9786,5.0393 -6.11719,7.35938 -2.16664,2.26134 -4.38781,4.3321 -6.66406,6.21289 -2.30431,1.82205 -4.57227,3.26581 -6.80469,4.33203 -2.2324,1.06622 -4.35231,1.5377 -6.35937,1.41406 -2.00706,-0.12363 -3.97763,-0.69763 -5.91016,-1.72265 -1.87378,-1.05308 -3.74093,-2.46916 -5.60156,-4.25 -1.82994,-1.86765 -3.68238,-4.01374 -5.56055,-6.43555 -0.79616,3.77124 -1.80954,7.39299 -3.03711,10.86523 -1.25562,3.4135 -2.70958,6.56123 -4.36328,9.44336 -1.59496,2.85408 -3.41768,5.38463 -5.46679,7.58985 -2.01847,2.11841 -4.20283,3.73898 -6.55274,4.86133 -1.93867,0.92592 -3.91345,1.47315 -5.92578,1.64062 -2.01232,0.16747 -4.05796,-0.19017 -6.13867,-1.07227 -2.02197,-0.91015 -4.00509,-2.41689 -5.94727,-4.51953 -1.97022,-2.16138 -3.83974,-5.09383 -5.60742,-8.79492 -2.1605,-4.52357 -4.38062,-10.53328 -6.66211,-18.0293 -2.22275,-7.52407 -4.68778,-16.15834 -7.39453,-25.90429 -0.30338,-0.93734 -0.65869,-2.21134 -1.06641,-3.82031 -0.37703,-1.69579 -0.72213,-3.5495 -1.03515,-5.56446 -0.25428,-2.04301 -0.40578,-4.17272 -0.45313,-6.38672 -0.0473,-2.21399 0.138,-4.32047 0.55274,-6.32226 0.41474,-2.0018 1.13063,-3.82342 2.15039,-5.46485 1.0785,-1.66948 2.54461,-2.98284 4.39648,-3.93945 3.16974,-1.3696 5.59726,-2.02447 7.28516,-1.96484 1.65984,6.6e-4 2.73004,0.49912 3.20703,1.49804 0.95837,3.36615 2.02555,7.113 3.20312,11.24024 1.23632,4.09917 2.45649,8.24175 3.66211,12.42773 1.20564,4.18598 2.39987,8.27028 3.58008,12.25196 1.15215,3.92293 2.17911,7.43596 3.08399,10.53906 0.90488,3.1031 1.63167,5.60509 2.17968,7.50781 0.60676,1.87466 0.92507,2.84164 0.95313,2.90039 0.50505,1.05746 1.08309,2.04445 1.73633,2.95899 0.68392,0.82772 1.41541,1.52449 2.1914,2.09179 0.776,0.56732 1.59807,0.93241 2.46875,1.09375 0.8707,0.16134 1.7477,0.0302 2.62891,-0.39062 1.29245,-0.61729 2.4594,-1.57172 3.50195,-2.86328 1.0145,-1.35032 1.81467,-2.92193 2.40039,-4.7168 0.61642,-1.88167 0.95915,-3.9584 1.0293,-6.22852 0.0421,-2.32885 -0.26174,-4.77914 -0.91406,-7.35351 l -12.65821,-48.9336 c -0.37966,-1.55023 0.23457,-3.28502 1.8418,-5.20703 1.63792,-2.0088 3.77824,-3.64557 6.42188,-4.9082 2.62161,-1.2521 4.96555,-1.87387 7.02929,-1.86523 0.29482,0.001 0.58376,0.016 0.86719,0.043 2.26747,0.21571 3.79444,1.14609 4.58008,2.79102 0.75757,1.58618 1.61968,3.84395 2.58594,6.77344 0.9382,2.87074 1.89901,6.09166 2.88281,9.66211 1.01448,3.48364 2.02593,7.11197 3.03515,10.88672 1.00922,3.77475 1.93579,7.30141 2.7793,10.57812 0.90225,3.24865 1.72305,6.10299 2.46484,8.5625 0.71374,2.40076 1.28225,4.04066 1.70313,4.92188 0.78563,1.64493 1.54324,3.15913 2.27539,4.54101 0.70409,1.32314 1.45707,2.44222 2.25586,3.35938 0.77073,0.85842 1.58897,1.44115 2.45703,1.74804 0.89875,0.22009 1.93638,0.0495 3.11133,-0.51172 1.29245,-0.61728 2.6945,-1.68317 4.20703,-3.19921 1.57128,-1.54409 3.13248,-3.3355 4.68359,-5.375 1.58181,-2.12631 3.13771,-4.38409 4.66602,-6.77344 1.50026,-2.4481 2.8553,-4.90015 4.06445,-7.35352 0.74959,-1.46702 1.40986,-2.87439 2.02539,-4.25195 -0.22969,-0.96049 -0.46256,-1.89209 -0.68945,-2.87695 -0.896,-4.17713 -1.75217,-8.43921 -2.57031,-12.78321 -0.77922,-4.42744 -1.45143,-8.65045 -2.01367,-12.67187 -0.56225,-4.02142 -1.01187,-7.73688 -1.35157,-11.14649 -0.33968,-3.4096 -0.4789,-6.26979 -0.41796,-8.57812 -1.9e-4,-1.52405 0.0987,-2.77269 0.29882,-3.74609 0.20013,-0.97342 0.52835,-1.78472 0.98438,-2.43555 0.49495,-0.73428 1.17951,-1.33091 2.05273,-1.78711 0.91214,-0.53964 2.07133,-1.06429 3.47852,-1.57617 1.59072,-0.57866 2.84817,-0.93252 3.77148,-1.06055 0.96225,-0.21147 1.7691,-0.0888 2.41992,0.36719 0.62858,0.39484 1.17298,1.13192 1.63477,2.21093 0.52297,1.05678 1.13038,2.53305 1.82031,4.42969 l 3.00391,8.25977 c 1.15731,3.18146 2.36367,6.31095 3.62109,9.38672 l 1.00977,-0.36719 c 0.3334,-2.8924 0.71919,-6.11757 1.1582,-9.67188 0.41675,-3.61549 1.15676,-7.10543 2.21875,-10.4707 1.062,-3.36527 2.55625,-6.4023 4.48047,-9.11133 1.90196,-2.7702 4.53538,-4.76615 7.90039,-5.99023 1.16245,-0.42286 2.37184,-0.62142 3.62891,-0.59375 1.23481,-0.0335 2.38288,0.17231 3.44531,0.61719 1.12362,0.4226 2.13142,1.0963 3.02148,2.01953 0.86781,0.86204 1.54553,1.96454 2.03516,3.31054 0.37835,1.04009 0.7605,2.56435 1.14453,4.57227 0.36177,1.94674 0.73734,4.02651 1.12695,6.24023 0.36736,2.15254 0.75388,4.26489 1.16016,6.33399 0.38403,2.00792 0.80997,3.65268 1.27734,4.9375 0.80122,2.20255 1.68212,3.96086 2.64454,5.27344 0.96242,1.31257 1.94823,2.3056 2.95507,2.97851 1.04577,0.58948 2.06266,0.91129 3.05274,0.9668 1.05126,0.0333 2.06601,-0.12826 3.04492,-0.48438 2.75319,-1.00151 5.37557,-2.64752 7.86719,-4.93945 2.49161,-2.29192 4.68334,-4.64857 6.57422,-7.06836 0.27876,-0.35254 0.54818,-0.71867 0.82226,-1.07812 -0.28688,-1.3768 -0.57228,-2.74342 -0.85937,-4.16407 -1.7054,-8.43892 -3.3074,-17.3756 -4.80664,-26.8125 -1.49924,-9.43689 -2.58833,-18.84835 -3.26563,-28.234371 -0.0397,-0.595043 -0.0582,-1.17711 -0.0937,-1.769531 C 421.8684,74.770505 402.45499,56.816854 383.37699,46.335978 358.38091,32.603865 349.43669,27.649972 306.9434,27.884806 Z m 159.04297,5.789062 c -0.0787,9.3e-4 -0.15768,0.01033 -0.23633,0.03125 -1.63584,0.435053 -3.34633,3.753749 -5.13281,9.955078 -1.78649,6.20133 -3.4964,14.975126 -5.12696,26.322266 -0.14928,3.7449 -0.20168,7.599397 -0.1582,11.5625 0.10639,3.946371 0.27558,7.876159 0.50781,11.789062 0.27842,3.833254 0.5797,7.627253 0.9043,11.380853 0.37078,3.67396 0.76282,7.1741 1.17578,10.5 0.92162,7.7716 2.05325,15.31748 3.39453,22.64063 0.6446,-4.41556 1.35379,-9.21884 2.12891,-14.41016 0.0614,-0.41121 0.11847,-0.80647 0.17969,-1.21679 l -0.41016,0.90039 c -0.15917,-1.44835 -0.31667,-2.90717 -0.46875,-4.41407 -0.3246,-3.7536 -0.62588,-7.5476 -0.9043,-11.38086 -0.23223,-3.9129 -0.40142,-7.842684 -0.50781,-11.789055 -0.0435,-3.963103 0.009,-7.8176 0.1582,-11.5625 1.63056,-11.34714 3.34047,-20.120936 5.12696,-26.322266 1.38195,-4.797118 2.71813,-7.848595 4.00976,-9.195312 -0.22029,-3.40178 -0.56883,-6.158184 -1.08203,-8.087891 -1.19221,-4.482846 -2.37811,-6.717079 -3.55859,-6.703125 z M 744.9707,95.349609 c -0.0819,1.974365 -0.18058,3.935242 -0.29687,5.880861 -0.23567,3.94291 -0.40171,7.94485 -0.4961,12.00586 -0.10018,3.99616 0.0511,8.23074 0.45118,12.70508 0.31314,3.50164 1.02195,6.31394 2.12695,8.4375 1.105,2.12356 2.30466,3.1277 3.60156,3.01171 1.36176,-0.12178 2.76387,-0.54083 4.20313,-1.25781 1.43925,-0.71698 2.89598,-1.59947 4.37109,-2.64648 1.4751,-1.04701 2.9059,-2.22089 4.29297,-3.52149 0.375,-0.3707 0.73264,-0.74842 1.09766,-1.12304 -1.06038,-2.67332 -2.18207,-5.20823 -3.3711,-7.57422 -4.69331,-9.339 -10.0576,-17.9751 -15.98047,-25.917971 z m -153.26562,7.875001 c -2.62796,0.46781 -5.07189,1.59765 -7.33203,3.38867 -2.27157,1.72693 -4.32981,3.91196 -6.17383,6.55469 -1.77993,2.63133 -3.34215,5.5543 -4.6875,8.76953 -1.34534,3.21523 -2.40612,6.54579 -3.18164,9.99023 -0.78693,3.38034 -1.27986,6.74224 -1.47852,10.08399 -0.13455,3.33034 0.0507,6.40436 0.55274,9.22461 0.28525,1.6024 0.66082,3.15607 1.12695,4.66015 0.51882,1.42858 1.17509,2.70126 1.96875,3.81641 0.78225,1.05105 1.72194,1.87466 2.82031,2.47266 1.08696,0.53391 2.36758,0.67063 3.8418,0.4082 2.37157,-0.42217 4.33676,-1.83122 5.89453,-4.22461 1.55777,-2.39339 2.78497,-5.1576 3.68164,-8.29297 0.89667,-3.13536 1.48787,-6.31605 1.77344,-9.54101 0.34967,-3.23638 0.47006,-5.90132 0.36133,-7.99805 l 0.83203,-29.3125 z m -283.35742,12.53906 1.73632,6.82617 c -0.95576,0.42337 -1.8238,0.94994 -2.60546,1.58204 -0.74752,0.61691 -1.34881,1.33401 -1.80469,2.14843 -0.43688,0.76516 -0.69452,1.61252 -0.77149,2.54492 -0.0921,0.89827 0.0811,1.84214 0.51954,2.83204 l 4.46874,10.08789 -4.91601,2.17773 -9.63867,-21.76172 4.30078,-1.90429 c 0.61259,1.19857 1.12693,2.17484 1.54297,2.92968 0.43504,0.7056 0.89704,1.52174 1.38867,2.44727 0.0204,-1.15233 0.2399,-2.27187 0.6582,-3.35547 0.41832,-1.0836 0.90656,-2.05428 1.46485,-2.91406 0.5773,-0.90904 1.19914,-1.67416 1.86328,-2.29492 0.649,-0.65498 1.24681,-1.10379 1.79297,-1.34571 z m -19.16797,9.16797 10.0039,22.21094 -4.08593,1.83984 -3.32618,-5.75 c -10e-4,2.08867 -0.43846,4.02655 -1.3125,5.8125 -0.85566,1.73659 -2.40765,3.11117 -4.65429,4.12305 -2.24664,1.01189 -4.29375,1.23717 -6.14258,0.67773 -1.83012,-0.6088 -3.21622,-1.86773 -4.1582,-3.77734 l -7.10547,-15.77734 4.90039,-2.20704 6.07226,13.47852 c 0.54336,1.02458 1.30697,1.76703 2.29102,2.22461 1.00277,0.40821 2.25171,0.31578 3.74609,-0.27539 0.98716,-0.44462 1.81292,-1.02016 2.47657,-1.72852 0.66364,-0.70836 1.1465,-1.49969 1.44921,-2.37304 0.33676,-0.8887 0.48235,-1.83553 0.43946,-2.83985 -0.0429,-1.00431 -0.28584,-1.99917 -0.73047,-2.98633 l -4.71485,-10.46875 4.85157,-2.18359 z m -32.08594,15.02344 c 1.65577,-0.0647 3.20994,0.18433 4.66211,0.74804 1.48608,0.54807 2.83737,1.38359 4.05469,2.50782 1.20168,1.09032 2.16171,2.41511 2.88086,3.97461 0.71915,1.5595 1.11114,3.16845 1.17578,4.82422 0.0985,1.64013 -0.11797,3.22024 -0.65039,4.74023 -0.54806,1.48607 -1.37578,2.85424 -2.48438,4.10547 -1.12422,1.21732 -2.51847,2.20856 -4.17969,2.97461 -1.5934,0.73478 -3.20947,1.15145 -4.84961,1.25 -1.64012,0.0985 -3.21245,-0.10108 -4.71679,-0.59961 -1.48608,-0.54806 -2.85425,-1.37579 -4.10547,-2.48438 -1.26686,-1.14249 -2.29254,-2.5627 -3.07422,-4.25781 -0.71915,-1.55951 -1.10138,-3.14962 -1.15039,-4.77148 -0.0307,-1.67141 0.24421,-3.25806 0.82617,-4.75977 0.58196,-1.50171 1.43438,-2.8608 2.5586,-4.07812 1.14249,-1.26686 2.5101,-2.26718 4.10351,-3.00196 1.62731,-0.75041 3.27782,-1.14113 4.94922,-1.17187 z m -0.11914,5.35742 c -0.95173,-0.0133 -1.88542,0.19119 -2.80078,0.61328 -0.91537,0.42211 -1.69426,1.00773 -2.33594,1.75586 -0.62342,0.69859 -1.0989,1.49312 -1.42773,2.38477 -0.31057,0.84211 -0.4483,1.74875 -0.41211,2.71875 0.0205,0.93608 0.24193,1.86197 0.66406,2.77734 0.42211,0.91536 0.99084,1.70204 1.70508,2.35938 0.69859,0.62341 1.47624,1.10669 2.33398,1.45117 0.87602,0.29493 1.78266,0.43266 2.71875,0.41211 0.96999,-0.0362 1.91276,-0.26541 2.82813,-0.6875 0.91536,-0.42212 1.68322,-0.98305 2.30664,-1.68164 0.65731,-0.71424 1.14256,-1.49188 1.45312,-2.33399 0.32884,-0.89165 0.48345,-1.8061 0.46289,-2.74219 -0.002,-0.98562 -0.21432,-1.9362 -0.63672,-2.85156 -0.4221,-0.91537 -0.99992,-1.67736 -1.73242,-2.28516 -0.71423,-0.6573 -1.50875,-1.1328 -2.38476,-1.42773 -0.85775,-0.34447 -1.7722,-0.49908 -2.74219,-0.46289 z m -77.74609,38.35352 c -3.83971,0.0342 -7.75315,0.5951 -11.73829,1.68164 -6.41282,1.68462 -12.71351,4.63314 -18.90429,8.84375 -4.52196,3.07556 -8.83552,6.40123 -12.9375,9.97851 -4.04816,3.54067 -7.59911,7.17617 -10.65235,10.90625 -2.9994,3.69347 -5.34816,7.41629 -7.04687,11.16992 -1.68149,3.66319 -2.42461,7.20028 -2.23047,10.61133 0.20758,8.75593 0.18194,15.66416 -0.0781,20.72266 -0.29666,5.00465 -1.30664,8.09202 -3.02929,9.26367 -2.36865,1.61101 -5.4016,-0.30117 -9.09961,-5.73828 -0.69548,-1.02256 -1.33969,-2.04268 -1.95508,-3.06055 0.12468,0.47256 0.24864,0.94565 0.38867,1.41992 1.45624,5.15092 3.97824,10.36501 7.56641,15.64063 3.69801,5.43711 6.73096,7.34929 9.09961,5.73828 1.72265,-1.17165 2.73262,-4.25902 3.02929,-9.26367 0.26006,-5.0585 0.28571,-11.96673 0.0781,-20.72266 -0.19414,-3.41105 0.54898,-6.94814 2.23047,-10.61133 1.69871,-3.75363 4.04747,-7.47645 7.04687,-11.16992 1.12248,-1.3713 2.32822,-2.72592 3.5918,-4.07031 -0.0674,-1.44913 -0.1138,-2.89389 -0.11328,-4.33008 2.02805,-5.2374 4.60426,-8.91741 7.72656,-11.04101 3.9298,-2.67282 8.71336,-2.7003 14.35352,-0.0801 -0.20625,5.02187 0.24749,10.14672 1.36133,15.37304 1.11384,5.22633 2.64476,10.48454 4.58984,15.77539 1.90847,5.23703 4.07802,10.45434 6.50976,15.6504 2.43176,5.19604 4.84337,10.2468 7.23633,15.15429 2.61482,5.46522 4.86204,10.15902 6.74024,14.07813 1.8954,3.82866 3.57774,7.1718 5.04883,10.02929 1.52492,2.82088 2.88491,5.28116 4.07812,7.38282 1.24705,2.06504 2.51148,4.03968 3.79297,5.92383 1.35471,1.9918 2.54339,3.62389 3.56641,4.89648 1.07684,1.23598 2.1323,2.09235 3.16601,2.57031 1.08753,0.44136 2.2697,0.50243 3.54883,0.1836 1.29634,-0.40928 2.83289,-1.21753 4.60937,-2.42579 5.38328,-3.66139 9.78416,-8.18925 13.20118,-13.58398 3.38039,-5.44857 5.90725,-11.34015 7.58203,-17.67578 1.63816,-6.38946 2.46276,-13.05221 2.4707,-19.98633 0.0618,-6.97074 -0.57123,-13.86238 -1.89844,-20.67578 -1.27335,-6.85002 -3.13975,-13.41413 -5.59961,-19.69336 -2.49646,-6.33307 -5.46649,-12.02956 -8.9082,-17.08984 -4.24722,-6.24461 -9.05999,-11.12145 -14.4375,-14.62891 -5.41413,-3.56129 -11.1312,-5.77357 -17.15234,-6.63867 -2.25147,-0.35833 -4.52821,-0.52833 -6.83203,-0.50781 z m 421.83789,12.2871 c 1.3549,-0.0342 2.56875,0.25716 3.64062,0.875 1.45373,0.78892 2.32436,2.01686 2.61328,3.68165 0.26828,1.54587 -0.11866,2.93005 -1.16211,4.15234 -1.01887,1.1874 -2.43462,1.93724 -4.24804,2.25195 -1.84316,0.31988 -3.36067,0.13858 -4.55078,-0.54297 -1.19012,-0.68154 -2.21531,-1.81953 -3.07422,-3.41601 -0.46314,1.21345 -0.65164,2.85392 -0.56836,4.92187 0.0219,0.30244 0.0843,0.75114 0.1875,1.34571 0.1135,0.65402 0.21235,1.14104 0.29882,1.46289 3.78679,0.29215 6.90501,1.40479 9.35352,3.33789 2.44336,1.90335 3.9773,4.65482 4.60156,8.25195 0.56236,3.24038 0.18508,6.09239 -1.13281,8.55664 -1.28815,2.45908 -3.31099,4.47956 -6.06836,6.06055 -2.76253,1.55125 -6.06154,2.65868 -9.89648,3.32422 -2.88365,0.50045 -5.56738,0.66034 -8.04883,0.47851 -1.57855,1.31516 -2.7257,2.4633 -3.44336,3.44531 -0.68793,0.97685 -0.93964,2.0001 -0.75391,3.07032 0.35083,2.02152 1.74588,2.8215 4.1836,2.39844 l 21.09179,-3.66016 c 3.65658,-0.63459 6.74972,-0.37643 9.27735,0.77734 2.5522,1.11888 4.12613,3.40309 4.72461,6.85156 0.54172,3.12148 0.0854,6.30863 -1.3711,9.5625 -1.4513,3.28362 -4.00745,6.20922 -7.66601,8.77344 -3.65856,2.56422 -8.35619,4.34411 -14.09375,5.33985 -4.45924,0.77388 -8.26577,1.06614 -11.42188,0.8789 -3.12122,-0.16266 -5.52987,-0.70945 -7.22265,-1.64062 -1.69279,-0.93118 -2.67048,-2.15378 -2.9336,-3.66992 -0.28375,-1.63506 0.11381,-2.96043 1.19336,-3.97461 1.10929,-1.01936 2.98532,-2.21694 5.625,-3.59375 2.63968,-1.37682 4.46552,-2.58164 5.48047,-3.61524 l -2.13867,0.3711 c -2.52691,0.43853 -4.96639,0.23411 -7.31836,-0.61329 -2.35197,-0.84739 -3.80805,-2.87723 -4.36523,-6.08789 -0.3044,-1.75397 -0.22101,-3.39106 0.25,-4.91211 0.49554,-1.55594 1.46526,-3.1183 2.9082,-4.68554 1.4675,-1.60212 3.51036,-3.33448 6.12695,-5.19727 -3.30721,-0.52849 -6.02761,-1.72603 -8.1582,-3.59179 -2.13576,-1.89552 -3.49248,-4.50638 -4.07031,-7.83594 -0.8358,-4.81599 0.3212,-8.73853 3.4707,-11.76563 3.17406,-3.06198 7.71883,-5.10612 13.63476,-6.13281 2.43772,-0.42306 4.73351,-0.60778 6.88672,-0.55273 -0.35746,-1.5304 -0.50334,-3.08141 -0.43945,-4.6543 -0.14125,-2.57849 0.36936,-4.74989 1.5332,-6.51367 1.15868,-1.79352 3.04602,-2.91708 5.66211,-3.3711 0.48309,-0.0838 0.95071,-0.13117 1.40235,-0.14258 z m -110.9375,14.80469 c 1.0663,0.019 2.05158,0.2279 2.95312,0.625 1.83206,0.78576 3.05523,2.23509 3.67188,4.34961 0.6251,2.14349 0.37638,4.04012 -0.7461,5.6875 -1.09352,1.63894 -2.86992,2.81714 -5.33203,3.53516 -2.52005,0.73491 -4.68323,0.70433 -6.48633,-0.0899 -1.80308,-0.7942 -3.01552,-2.26276 -3.64062,-4.40625 -0.61665,-2.11452 -0.37867,-3.98997 0.71484,-5.6289 1.09352,-1.63894 2.89988,-2.82564 5.41992,-3.56055 l 0,-0.002 c 1.23106,-0.35901 2.37902,-0.52881 3.44532,-0.50977 z m 96.91406,1.95313 c -0.24222,0.0105 -0.4895,0.0382 -0.74219,0.082 -1.9918,0.34567 -3.33713,1.58978 -4.03711,3.73242 -0.69997,2.14264 -0.64594,5.5475 0.16406,10.21484 0.81,4.66734 1.90611,7.89234 3.28711,9.67383 1.381,1.7815 3.0668,2.49801 5.0586,2.15235 2.02152,-0.35084 3.36881,-1.59495 4.03906,-3.73243 0.69998,-2.14264 0.64398,-5.5475 -0.16602,-10.21484 -0.81,-4.66734 -1.90611,-7.89038 -3.2871,-9.67187 -1.18237,-1.56332 -2.62089,-2.30951 -4.31641,-2.23633 z m -121.25,3.90429 19.96094,59.13282 c 0.91675,2.71585 1.98384,4.5546 3.19921,5.51367 1.23436,0.92084 2.90794,1.02465 5.02344,0.31055 l 0.62305,1.84375 c -1.91611,0.45572 -3.76076,0.98177 -5.5332,1.58007 -5.1744,1.74666 -9.31285,3.59015 -12.41602,5.5293 l -2.54687,-7.54687 c -0.18732,5.9546 -3.09671,9.88215 -8.72852,11.7832 -3.57349,1.20625 -7.00789,1.40985 -10.30273,0.61133 -3.27591,-0.83676 -6.28066,-2.8 -9.01172,-5.89063 -2.71212,-3.12885 -4.97047,-7.41412 -6.77539,-12.85547 -1.7656,-5.13616 -2.41658,-9.75673 -1.95508,-13.86133 0.49008,-4.11425 1.90766,-7.55391 4.2539,-10.32031 2.37484,-2.77605 5.47783,-4.81237 9.3086,-6.10547 4.31677,-1.45715 7.93388,-1.4503 10.84961,0.0176 l -5.03907,-14.92383 c -0.91675,-2.71584 -2.00659,-4.52826 -3.26953,-5.43945 -1.244,-0.94943 -2.89479,-1.07761 -4.95312,-0.38281 l -0.62109,-1.84375 c 1.9161,-0.45574 3.75883,-0.98179 5.53124,-1.58008 5.14583,-1.73701 9.28024,-3.59487 12.40235,-5.57227 z m 81.08203,2.83789 c 0.472,0.002 0.92166,0.0293 1.3457,0.082 1.72549,0.20385 3.22448,0.75731 4.49805,1.66015 1.27357,0.90284 2.34917,2.20982 3.22852,3.92188 0.87933,1.71206 1.6887,4.09437 2.42578,7.14453 l 5.85742,24.24023 c 0.40397,1.67173 0.90951,2.93097 1.51758,3.77735 0.60806,0.84638 1.36987,1.36014 2.2832,1.54297 0.91333,0.18282 2.08829,0.10118 3.52539,-0.2461 l 0.45703,1.89063 c -6.0397,1.21118 -10.0272,2.05177 -11.96289,2.51953 -1.84769,0.4465 -5.73579,1.50902 -11.66211,3.18945 l -0.45703,-1.89062 c 1.2318,-0.29767 2.15388,-0.72207 2.76563,-1.27344 0.61174,-0.55136 0.95108,-1.33241 1.01757,-2.3418 0.0958,-1.01646 -0.0589,-2.36147 -0.46289,-4.0332 l -6.77148,-28.02344 c -0.59533,-2.46359 -1.45609,-4.22638 -2.58203,-5.28906 -1.09663,-1.06977 -2.70086,-1.34818 -4.8125,-0.83789 -1.6424,0.39688 -3.04244,1.21474 -4.20117,2.45703 -1.1294,1.23519 -1.89481,2.75612 -2.29688,4.56055 -0.40915,1.77509 -0.37986,3.63072 0.0879,5.5664 l 6.0586,25.07617 c 0.40397,1.67173 0.88028,2.93633 1.42968,3.79688 0.54941,0.86055 1.22351,1.39625 2.01953,1.60742 0.79602,0.21118 1.79362,0.17144 2.9961,-0.11914 l 0.45898,1.89258 c -5.57045,1.09779 -9.32408,1.8799 -11.25976,2.34766 -1.8477,0.44649 -5.96967,1.56749 -12.36524,3.36132 l -0.45703,-1.89258 c 1.4371,-0.34727 2.52094,-0.81091 3.25,-1.39062 0.75839,-0.5868 1.19907,-1.3905 1.32422,-2.41406 0.15448,-1.03065 0.0309,-2.38297 -0.37305,-4.05469 l -6.86914,-28.41797 c -0.67329,-2.78621 -1.58423,-4.69248 -2.73242,-5.71875 -1.15528,-1.05559 -2.80238,-1.32597 -4.94336,-0.80859 l -0.45703,-1.89063 c 1.94887,-0.2847 3.83202,-0.64653 5.65039,-1.08593 5.30846,-1.2828 9.59316,-2.75462 12.85547,-4.41211 l 1.95703,8.0957 c 1.38096,-6.23153 5.6349,-10.20944 12.76172,-11.93164 1.84769,-0.4465 3.47852,-0.66524 4.89453,-0.65821 z m -46.82812,11.77344 11.28906,38.71289 c 0.4815,1.65107 1.04648,2.88603 1.69336,3.70313 0.64687,0.81709 1.4307,1.29553 2.35156,1.43554 0.92087,0.14004 2.09043,0.002 3.50976,-0.4121 l 0.54493,1.86914 c -5.97666,1.49152 -9.94829,2.52519 -11.91797,3.09961 -1.8828,0.54906 -5.97825,1.86689 -12.2832,3.95703 l -0.54493,-1.86719 c 1.41934,-0.41391 2.48041,-0.92793 3.18164,-1.54102 0.7302,-0.62152 1.13366,-1.44633 1.21094,-2.47461 0.10625,-1.03672 -0.081,-2.38018 -0.5625,-4.03125 l -8.18555,-28.06835 c -0.80248,-2.75178 -1.80128,-4.61434 -2.99609,-5.58594 -1.20325,-1.00058 -2.86204,-1.19087 -4.97656,-0.57422 l -0.54492,-1.86914 c 1.93348,-0.37528 3.79785,-0.82392 5.59375,-1.34766 5.24286,-1.52896 9.45524,-3.19803 12.63672,-5.00586 z m -87.09571,3.6836 23.00781,58.01562 c 1.05674,2.6645 2.21683,4.44332 3.48047,5.33789 1.28057,0.85541 2.95965,0.87197 5.03516,0.0488 l 0.7168,1.80859 c -1.88982,0.55476 -3.70443,1.17753 -5.44336,1.86719 -5.07658,2.01337 -9.1132,4.06811 -12.11133,6.16602 l -2.9375,-7.4043 c 0.12259,5.95629 -2.57818,10.03131 -8.10352,12.22266 -3.50592,1.39044 -6.92394,1.77258 -10.25586,1.14648 -3.31499,-0.66528 -6.4166,-2.4716 -9.30468,-5.41602 -2.87116,-2.98358 -5.35012,-7.14424 -7.43555,-12.48437 -2.03029,-5.03741 -2.92125,-9.61719 -2.67383,-13.74023 0.27547,-4.13417 1.51173,-7.64463 3.71094,-10.5293 2.22727,-2.89579 5.22017,-5.08952 8.97851,-6.58008 4.23515,-1.67966 7.84782,-1.86113 10.83594,-0.54687 l -5.80664,-14.64063 c -1.05674,-2.66451 -2.24021,-4.4194 -3.54883,-5.26367 -1.29168,-0.88346 -2.94738,-0.92395 -4.96679,-0.12305 l -0.7168,-1.81054 c 1.88982,-0.55476 3.70443,-1.17558 5.44336,-1.86524 5.04853,-2.00225 9.08065,-4.0719 12.0957,-6.20898 z m 45.11328,12.29882 c -0.96067,0.0108 -1.96502,0.19224 -3.01562,0.54688 -3.08749,1.0422 -4.87113,3.63451 -5.35156,7.77734 -0.48044,4.14284 0.49028,9.75579 2.91211,16.83594 4.45938,13.49383 9.49055,19.29374 15.09374,17.40234 1.25789,-0.4246 2.33761,-1.13924 3.24024,-2.14453 0.90262,-1.00528 1.52737,-2.2196 1.875,-3.64257 0.36657,-1.46124 0.38526,-3.01247 0.0547,-4.65235 l -10.37891,-30.74609 c -1.35129,-0.9371 -2.82857,-1.39496 -4.42969,-1.37696 z m 147.58008,11.20508 c -0.71827,-0.0361 -1.57441,0.0322 -2.57031,0.20508 l -15.65234,2.7168 c -0.84568,1.12672 -1.4296,2.43834 -1.75196,3.93359 -0.29262,1.4901 -0.34058,2.80002 -0.14453,3.92969 0.43854,2.52691 1.7246,4.2932 3.85938,5.30078 2.16966,1.03215 4.75525,1.28866 7.75781,0.76758 2.46745,-0.42822 4.67618,-1.28633 6.62695,-2.57422 1.98566,-1.26331 3.45494,-2.86571 4.4043,-4.80664 0.97907,-1.94609 1.26835,-4.06444 0.87109,-6.35352 -0.227,-1.30804 -0.78083,-2.20711 -1.66211,-2.69726 -0.44064,-0.24508 -1.02001,-0.38576 -1.73828,-0.42188 z m -197.87305,7.44532 c -1.24643,-0.0737 -2.55732,0.16197 -3.93164,0.70703 -3.02912,1.20134 -4.6751,3.88466 -4.93945,8.04687 -0.26435,4.16221 0.99651,9.71552 3.7832,16.66016 5.15506,13.24368 10.48123,18.77397 15.97852,16.59375 1.23409,-0.48944 2.27587,-1.25774 3.125,-2.3086 0.84913,-1.05086 1.41043,-2.29716 1.68359,-3.73632 0.29009,-1.47833 0.22602,-3.02798 -0.18945,-4.64844 l -11.96289,-30.16406 c -1.11856,-0.69245 -2.30044,-1.0767 -3.54688,-1.15039 z m -73.91601,8.8164 0.86719,1.64063 c -2.55404,2.91769 -3.23878,7.43998 -2.05078,13.56836 l 10.25195,54.41601 c -0.6152,0.25651 -1.59163,0.73713 -2.92578,1.44141 -1.30748,0.69018 -2.23997,1.21682 -2.79883,1.58008 l -31.37695,-30.16016 7.20312,42.92187 c -0.64189,0.2706 -1.61831,0.75122 -2.92578,1.44141 -1.30747,0.69019 -2.25235,1.22423 -2.83789,1.60156 l -45.45899,-41.61328 c -1.55744,-1.46379 -3.0344,-2.35568 -4.43164,-2.67578 -1.37056,-0.33418 -2.53596,-0.28143 -3.49804,0.1582 l -0.86719,-1.64062 c 3.36653,-1.57242 7.492,-3.64891 12.375,-6.22656 4.58949,-2.42272 7.89452,-4.27011 9.91797,-5.54297 l 0.86719,1.64062 c -1.76773,1.24022 -2.15242,2.80863 -1.15235,4.70313 0.53526,1.01396 1.42315,2.11343 2.66406,3.30078 l 30.22266,28.26562 -4.51953,-28.73047 -10.90039,-10.46874 c -1.37879,-1.31928 -2.61209,-2.10167 -3.69727,-2.34766 -1.08517,-0.246 -2.14234,-0.1501 -3.17187,0.29101 l -0.86524,-1.64062 c 3.12638,-1.44566 7.07725,-3.42791 11.85352,-5.94922 5.30993,-2.80303 9.20263,-4.9623 11.67969,-6.47461 l 0.86718,1.64258 c -1.97306,1.10979 -3.28125,2.08847 -3.92382,2.93945 -0.64257,0.85099 -0.65297,1.86501 -0.0332,3.03907 0.46482,0.88053 1.40707,2.0206 2.82813,3.41992 l 29.31445,28.38476 -5.27539,-28.89648 c -0.88541,-4.6504 -1.95341,-8.16231 -3.20703,-10.53711 -1.25361,-2.37479 -2.7434,-3.77249 -4.4668,-4.19336 -1.71079,-0.46164 -3.76002,-0.11261 -6.15039,1.04687 l -0.86719,-1.64062 c 3.76678,-1.78371 7.19773,-3.49303 10.29297,-5.12695 2.58826,-1.3663 4.65412,-2.55882 6.19727,-3.57813 z m 33.79687,5.80078 c 6.60887,0.0623 11.93383,4.58223 15.97461,13.56055 l -23.73047,10.67969 c 0.28896,0.86258 0.84091,2.20161 1.65821,4.01758 1.68411,3.74196 3.60755,6.6173 5.76758,8.62304 2.14765,1.97823 4.30559,3.17332 6.47656,3.58594 2.18608,0.37272 4.22845,0.13178 6.12695,-0.72266 4.64995,-2.09275 7.36304,-6.02727 8.13867,-11.80273 l 1.70899,-0.17383 c 0.32481,2.63318 0.18159,5.29475 -0.42774,7.98438 -0.59419,2.64973 -1.76036,5.12774 -3.50195,7.43359 -1.72647,2.26595 -4.06182,4.06172 -7.00586,5.38672 -3.87955,1.74602 -7.66453,2.45672 -11.35156,2.13086 -3.65953,-0.33826 -7.06886,-1.81592 -10.23047,-4.42969 -3.14648,-2.65367 -5.84782,-6.48456 -8.10156,-11.49219 -2.30328,-5.1177 -3.36014,-9.81861 -3.17188,-14.10547 0.17588,-4.31437 1.42167,-8.05267 3.73828,-11.21289 2.31662,-3.16022 5.51185,-5.65557 9.58399,-7.48828 2.9793,-1.34086 5.76158,-1.99896 8.34765,-1.97461 z m -6.57226,3.63867 c -0.51367,0.012 -1.01841,0.12867 -1.51367,0.35157 -2.00856,0.90397 -3.12241,2.91089 -3.34375,6.02148 -0.20621,3.0707 0.72068,7.30188 2.7832,12.69336 l 13.24805,-5.96289 c -1.89876,-4.43947 -3.9996,-7.89449 -6.30274,-10.36523 -1.70671,-1.86234 -3.33008,-2.77422 -4.87109,-2.73829 z m 132.23047,43.95704 c -0.38423,-0.0158 -0.82346,0.0532 -1.22266,0.21289 -0.88233,0.35308 -0.61856,0.61489 0.66992,0.66796 1.16594,0.048 1.8187,-0.21254 1.45117,-0.58007 -0.18376,-0.18376 -0.5142,-0.28495 -0.89843,-0.30078 z m 43.22656,0.006 c -0.50118,0 -1.00262,0.0771 -1.38281,0.23047 -0.7604,0.30684 -0.13793,0.5586 1.38281,0.5586 1.52079,0 2.1432,-0.25176 1.38281,-0.5586 -0.3802,-0.15341 -0.88163,-0.23042 -1.38281,-0.23047 z m -48.75781,1.09961 c -0.38423,-0.0158 -0.82151,0.0551 -1.22071,0.21485 -0.88233,0.35308 -0.62049,0.6149 0.66797,0.66797 1.16596,0.048 1.81868,-0.2145 1.45117,-0.58203 -0.18376,-0.18376 -0.5142,-0.28495 -0.89843,-0.30079 z m 54.28906,0.008 c -0.50117,0 -1.00262,0.0751 -1.38281,0.22851 -0.7604,0.30684 -0.13793,0.5586 1.38281,0.5586 1.52079,0 2.14125,-0.25176 1.38086,-0.5586 -0.3802,-0.15341 -0.87969,-0.22851 -1.38086,-0.22851 z m -43.70508,1.91992 c -1.86229,0.006 -3.76473,0.0408 -5.51367,0.11133 -2.43327,0.098 -7.41062,1.63556 -11.06055,3.41601 -3.6499,1.78046 -5.64048,3.02727 -4.42383,2.77149 1.21663,-0.25578 8.68171,-1.5496 16.58985,-2.87696 7.90815,-1.32735 14.58638,-2.6073 14.83984,-2.84375 0.37916,-0.35372 -4.84475,-0.59726 -10.43164,-0.57812 z m 26.56055,0.28711 12.16601,2.57226 c 15.13135,3.19993 16.78475,3.24528 10.50782,0.28711 -3.54044,-1.66851 -7.53208,-2.42062 -13.82618,-2.60351 l -8.84765,-0.25586 z m 8.64844,4.85547 c -1.73537,-0.0265 -3.36868,0.0766 -4.77735,0.33007 l -4.97656,0.89649 7.74219,0.87109 c 4.25823,0.47873 9.9813,1.50078 12.71875,2.27344 5.69687,1.60798 7.74218,1.91762 7.74218,1.16992 0,-0.28854 -1.5056,-1.30234 -3.3457,-2.2539 -3.76907,-1.94906 -9.89742,-3.20748 -15.10351,-3.28711 z m -28.55665,0.51562 -9.40234,0.45508 C 489.14669,337.53133 484.65984,338.4 481.23633,340 l -4.97852,2.32617 4.97852,-0.72656 c 2.73745,-0.39993 9.20625,-1.65135 14.37695,-2.78125 l 9.40234,-2.05469 z m 9.26758,3.47852 c -0.6014,-0.007 -1.24318,0.059 -1.78125,0.19922 -1.07614,0.28043 -0.46361,0.52824 1.36133,0.55078 1.82497,0.0224 2.70585,-0.20681 1.95703,-0.50977 -0.37441,-0.15148 -0.9357,-0.2328 -1.53711,-0.24023 z m 21.75586,0.97656 c -6.72114,-0.0157 -3.3398,2.21314 6.81641,4.49609 4.73726,1.06486 8.73853,1.98029 8.89062,2.03321 0.15216,0.0527 0.27539,-0.1757 0.27539,-0.50782 0,-1.4769 -12.03656,-6.01173 -15.98242,-6.02148 z m -42.37109,1.125 c -0.53121,-0.0209 -1.5328,0.0844 -3.09766,0.27148 -2.46989,0.29525 -6.69956,1.5867 -9.40039,2.86915 -2.70085,1.28242 -3.91585,2.12518 -2.69922,1.87304 1.21665,-0.25216 4.45204,-0.80561 7.18946,-1.23047 2.73745,-0.42483 5.97283,-1.50946 7.18945,-2.41015 1.28472,-0.95111 1.70371,-1.33827 0.81836,-1.37305 z m 29.19726,1.16406 c -1.90965,0.048 -2.72497,0.33225 -1.8125,0.63281 0.91248,0.30062 2.65447,0.97283 3.8711,1.49219 2.49272,1.06409 5.25616,2.01227 6.08398,2.08789 0.30414,0.0278 -0.62248,-0.92859 -2.05859,-2.125 -1.45956,-1.21592 -4.14317,-2.13671 -6.08399,-2.08789 z m -18.46875,0.002 c -1.55662,-0.0494 -3.79576,0.64007 -4.97656,1.5332 -2.83052,2.14086 -0.12025,2.1873 4.49024,0.0762 3.3083,-1.51483 3.30817,-1.51979 0.48632,-1.60937 z m 34.39258,3.63476 c -0.76895,0.005 -1.10453,0.27039 -0.92187,0.81836 0.24235,0.72707 3.6509,2.19214 7.57422,3.25391 9.60242,2.59869 10.35738,2.49408 3.81445,-0.52735 -4.986,-2.30248 -8.77509,-3.55613 -10.4668,-3.54492 z m -51.17968,0.8125 c -1.12037,0.0145 -3.36119,0.89142 -6.92579,2.66016 -3.04161,1.50922 -4.53501,2.54026 -3.31836,2.29297 1.21663,-0.24728 4.02951,-0.7551 6.25196,-1.12891 2.22246,-0.37383 4.32222,-1.41265 4.66601,-2.30859 0.39038,-1.0173 0.19751,-1.52691 -0.67382,-1.51563 z m 8.84374,0.99219 c -1.66777,0 -4.1564,2.14273 -4.15624,3.57812 0,1.0961 4.00222,-0.89374 4.98046,-2.47656 0.37393,-0.60507 0.003,-1.10156 -0.82422,-1.10156 z m 34.25977,0.0527 c -0.57883,0.007 -0.58746,0.54414 0.29492,1.60743 0.75728,0.91248 2.1857,1.64239 3.17578,1.62304 1.51229,-0.0295 1.45799,-0.29398 -0.3457,-1.6582 -1.39721,-1.05681 -2.54616,-1.57946 -3.125,-1.57227 z m 10.61719,3.83008 c -0.77788,0.0563 -0.65788,0.69681 0.57812,1.94336 1.21147,1.22178 8.93824,3.82483 11.77344,3.9668 0.60831,0.0303 -1.80652,-1.44697 -5.36523,-3.28321 -3.50194,-1.80694 -5.9862,-2.69929 -6.98633,-2.62695 z m -55.44727,0.70899 c -0.75173,0.0253 -2.49122,0.87953 -5.7539,2.68164 -2.73744,1.512 -3.98033,2.50877 -2.76368,2.21484 1.21663,-0.29397 3.54497,-0.85228 5.17383,-1.24023 1.62887,-0.38792 3.22951,-1.4061 3.5586,-2.26368 0.35703,-0.93039 0.36983,-1.41227 -0.21485,-1.39257 z m 49.36524,0.99023 c -0.79139,0.0808 -0.91658,1.38894 0.26172,2.80859 1.03655,1.24897 1.63635,1.39761 1.9414,0.48243 0.24277,-0.72825 -0.10496,-1.86856 -0.77148,-2.53516 -0.57544,-0.57544 -1.07192,-0.79257 -1.43164,-0.75586 z m -42.34375,0.29883 c -0.25872,0.0269 -0.64047,0.15532 -1.16211,0.35547 -0.91248,0.35015 -1.65821,1.33032 -1.65821,2.17773 0,2.09543 1.81729,1.95186 2.64649,-0.20898 0.59909,-1.56119 0.78795,-2.2172 0.39258,-2.31641 -0.0593,-0.0149 -0.13252,-0.0166 -0.21875,-0.008 z m 51.59765,4.16601 c -0.89785,-0.0431 -1.32812,0.41179 -1.32812,1.35547 0,0.79565 2.11581,1.96532 4.70117,2.59961 7.08977,1.73948 7.27837,1.63977 2.48828,-1.31055 -2.77939,-1.71186 -4.70694,-2.58911 -5.86133,-2.64453 z m -7.96875,1.01368 c -0.81797,0 -0.80119,0.7071 0.0547,2.30664 1.37292,2.56534 2.80822,2.08171 1.7793,-0.59961 -0.36021,-0.9387 -1.18518,-1.70703 -1.83399,-1.70703 z m -52.99218,0.40429 c -1.38262,-0.005 -3.9436,0.98623 -6.17579,2.57227 -2.06905,1.47013 -1.99809,1.52657 1.10547,0.86523 1.82496,-0.38891 3.94075,-0.89854 4.70118,-1.13281 0.7604,-0.23425 1.38281,-0.97419 1.38281,-1.64258 0,-0.45143 -0.38521,-0.65974 -1.01367,-0.66211 z m 6.76562,0.0586 c -0.0718,0.0139 -0.14662,0.0448 -0.22266,0.0918 -0.60831,0.37596 -1.10546,1.40077 -1.10546,2.27735 0,0.87658 0.49715,1.59375 1.10546,1.59375 0.60832,0 1.10547,-1.02482 1.10547,-2.27735 0,-1.09598 -0.38002,-1.78301 -0.88281,-1.68554 z m 53.66016,4.14062 c -0.65235,0.007 -0.79297,0.5149 -0.79297,1.45899 0,0.90089 1.11957,1.87786 2.48828,2.16992 6.12965,1.30799 6.97701,1.47108 8.01953,1.54492 0.60831,0.0429 -1.13365,-1.12207 -3.87109,-2.58789 -3.31979,-1.77766 -5.00502,-2.59521 -5.84375,-2.58594 z m -60.06641,0.86328 c -0.80947,-4.5e-4 -2.47119,0.6725 -4.32422,1.80469 l -4.42383,2.70313 3.8711,-0.70899 c 2.12911,-0.39005 4.3015,-1.09759 4.82617,-1.57227 0.52465,-0.47464 0.77324,-1.3721 0.55273,-1.99414 -0.056,-0.1579 -0.23213,-0.23227 -0.50195,-0.23242 z m 53.74219,0.0645 c -0.60832,0 -1.10547,0.99429 -1.10547,2.21093 0,1.21663 0.49715,2.21289 1.10547,2.21289 0.60831,0 1.10742,-0.99626 1.10742,-2.21289 0,-1.21664 -0.49911,-2.21093 -1.10742,-2.21093 z m -47.5586,1.10546 c -0.60831,0 -1.10546,0.74768 -1.10546,1.66016 0,0.91247 0.49715,1.6582 1.10546,1.6582 0.60832,0 1.10547,-0.74573 1.10547,-1.6582 0,-0.91248 -0.49715,-1.66016 -1.10547,-1.66016 z m 53.41407,3.93555 c -0.95169,0.0554 -1.42969,0.56985 -1.42969,1.54102 0,0.5066 2.36244,1.41339 5.25195,2.01562 7.78781,1.62309 7.95547,1.50714 2.17383,-1.50195 -2.76776,-1.4405 -4.77249,-2.12595 -5.99609,-2.05469 z m -59.66993,0.20508 c -0.67326,-0.041 -1.65452,0.41788 -3.18359,1.42578 -3.24517,2.13911 -2.25792,2.62839 2.49414,1.23633 1.56131,-0.45735 2.15012,-1.20669 1.61914,-2.0586 -0.2336,-0.37472 -0.5257,-0.57889 -0.92969,-0.60351 z m 52.82813,0.2832 c -0.54322,0 -1.27485,0.74767 -1.625,1.66016 -0.38778,1.0106 -10e-4,1.6582 0.98828,1.6582 0.89341,0 1.62305,-0.74572 1.62305,-1.6582 0,-0.91249 -0.44309,-1.66016 -0.98633,-1.66016 z m -45.39258,1.24219 c -0.11548,-0.0146 -0.22477,-0.0129 -0.32617,0.006 -0.67596,0.12432 -0.99085,0.95281 -0.33398,2.01562 0.40712,0.6587 1.24594,0.8847 1.86523,0.50196 0.75542,-0.46688 0.73586,-1.08652 -0.0586,-1.88086 -0.39927,-0.39926 -0.80004,-0.59876 -1.14649,-0.64258 z m 51.96485,3.18164 c -3.32594,0 -2.76336,2.06133 0.77539,2.8418 1.67288,0.36897 3.53816,0.83614 4.14648,1.03906 1.74776,0.58302 3.87109,0.59333 3.87109,0.0195 0,-1.00035 -6.53718,-3.90039 -8.79296,-3.90039 z m -57.74219,0.27539 c -1.71799,0.0324 -4.79977,1.09388 -6.92578,2.62695 -2.15208,1.55192 -2.01272,1.60977 2.12304,0.89258 2.43328,-0.42196 4.79573,-0.98006 5.25196,-1.24023 0.45625,-0.26017 0.83014,-0.99445 0.83007,-1.63281 0,-0.46355 -0.49839,-0.6612 -1.27929,-0.64649 z m 48.74023,0.96875 c -1.00215,0.0951 -2.04225,1.29484 -1.45312,2.24805 0.46688,0.75543 1.08458,0.73586 1.8789,-0.0586 0.65118,-0.65119 0.87719,-1.49003 0.50196,-1.86523 -0.2635,-0.2635 -0.59369,-0.35591 -0.92774,-0.32422 z m -41.04687,0.0117 c -0.17744,-0.0125 -0.32113,0.0242 -0.41602,0.11914 -1.08852,1.08856 0.58337,3.05078 2.59961,3.05078 1.68833,0 1.68532,-0.14683 -0.0391,-1.87109 -0.77127,-0.77126 -1.61222,-1.26145 -2.14453,-1.29883 z m 47.83398,3.53906 c -1.15567,0.0421 -2.02858,0.33939 -2.40039,0.93164 -0.6958,1.10831 0.61781,1.76856 5.41602,2.72461 9.14457,1.82209 10.02748,1.73718 6.44726,-0.62304 -3.00312,-1.97981 -6.92041,-3.12579 -9.46289,-3.03321 z m -53.8457,0.17188 c -1.86381,0.0384 -4.65532,1.0832 -7.5918,2.97851 l -3.31836,2.14063 3.59571,-0.61719 c 1.97703,-0.34038 5.05938,-0.90121 6.8496,-1.24609 2.22691,-0.42898 3.06249,-1.12609 2.64844,-2.20508 -0.28177,-0.73427 -1.06531,-1.0738 -2.18359,-1.05078 z m 44.68555,0.56445 c -0.93937,0 -2.88223,0.97938 -4.31836,2.17578 -2.54215,2.11783 -2.55089,2.17511 -0.29493,2.21094 1.27444,0.0203 3.21928,-0.95914 4.32032,-2.17578 1.69008,-1.86752 1.73489,-2.21094 0.29297,-2.21094 z m -34.04493,0.65625 c -0.27019,0.004 -0.53315,0.0492 -0.77148,0.14063 -1.52354,0.58462 -1.4937,0.8406 0.24414,2.11132 2.41328,1.76465 4.46094,0.80383 2.73047,-1.28125 -0.51173,-0.61662 -1.39256,-0.98149 -2.20313,-0.9707 z m -7.74414,3.86524 c -2.04902,0.003 -4.6335,0.8728 -8.27539,2.6914 -5.68669,2.83966 -5.24957,2.8748 6.51953,0.50977 4.53331,-0.91101 6.0496,-1.60766 4.97657,-2.28711 -0.95581,-0.60522 -1.99129,-0.91605 -3.22071,-0.91406 z m 49.51953,0.20898 c -0.95961,-0.0116 -1.87018,0.057 -2.70117,0.21289 -4.52999,0.84983 -3.78258,2.78086 1.10157,2.8457 1.9411,0.0258 6.26755,0.7295 9.61328,1.56446 8.31568,2.07526 8.79375,2.02517 4.97656,-0.52344 -3.73319,-2.49252 -8.8319,-4.04919 -12.99024,-4.09961 z m -25.85156,1.35156 c -10.26154,0 -11.26758,0.16546 -8.51758,1.39258 3.53276,1.57642 17.41646,1.34333 19.08008,-0.32031 0.6907,-0.69068 -3.0598,-1.07227 -10.5625,-1.07227 z m -18.88281,3.87891 c -6.34187,0.008 -12.35285,1.53929 -15.32422,3.90625 -2.0599,1.64091 -2.00666,1.69353 1.15625,1.14258 1.82496,-0.31789 6.67988,-1.138 10.78906,-1.82422 8.95165,-1.49493 10.77354,-3.23319 3.37891,-3.22461 z m 38.18359,0.26953 c -3.12825,-0.007 -4.92264,0.17238 -4.23828,0.47852 1.3821,0.61811 22.38878,5.23526 25.99219,5.71289 0.60832,0.0805 -1.12127,-1.18707 -3.84375,-2.81836 -4.14716,-2.48497 -6.47953,-3.0202 -14.37891,-3.30079 -1.29641,-0.046 -2.4885,-0.0699 -3.53125,-0.0723 z m 1.56836,5.25976 c -7.00271,-0.006 -10.01273,2.10384 -3.31836,2.32618 1.97702,0.0657 6.82914,0.74049 10.78321,1.5 10.39953,1.99756 10.47506,1.99832 8.86523,0.0586 -1.95425,-2.35471 -8.35409,-3.87765 -16.33008,-3.88477 z m -33.7207,0.30274 c -1.00212,0.0133 -2.21255,0.0488 -3.625,0.10352 -8.26961,0.32064 -10.91044,0.89481 -15.48438,3.36718 -3.03293,1.63941 -4.76792,2.77015 -3.85546,2.51367 0.91249,-0.25647 6.38892,-1.33707 12.16796,-2.40234 14.67484,-2.70504 17.81168,-3.6753 10.79688,-3.58203 z m -0.42969,5.19531 c -5.25007,-0.019 -14.19174,1.34984 -17.6582,3.17774 -5.23903,2.7626 -4.28389,2.86189 6.91601,0.71875 4.768,-0.91237 10.03806,-1.65811 11.71094,-1.65821 1.67287,-9e-5 3.04102,-0.56841 3.04102,-1.26367 0,-0.67055 -1.62337,-0.96595 -4.00977,-0.97461 z m 34.9375,0.20899 c -2.51575,-0.0231 -4.84579,0.19691 -6.59375,0.70507 l -3.87109,1.125 3.31836,0.16993 c 2.77819,0.14252 24.85129,3.83565 25.71484,4.30273 0.15216,0.0823 0.27539,-0.0579 0.27539,-0.3125 0,-0.25456 -1.69918,-1.51247 -3.77734,-2.79687 -3.09985,-1.9158 -9.53175,-3.14247 -15.06641,-3.19336 z m -33.96289,5.32812 c -3.42965,0.0584 -9.18687,0.71629 -13.40625,1.71094 -6.93511,1.63483 -13.95307,4.6627 -7.89062,3.4043 1.5208,-0.31569 7.4397,-1.33025 13.15234,-2.25391 5.71264,-0.92366 10.64694,-1.93991 10.9668,-2.25977 0.45459,-0.45459 -0.76448,-0.63657 -2.82227,-0.60156 z m 30.42969,0.41016 c -2.04286,-0.01 -3.99583,0.14426 -5.76953,0.47461 -3.99767,0.74453 -3.48237,0.93224 6.08398,2.22265 5.74762,0.77532 12.93888,2.09366 15.98047,2.93164 8.7134,2.40058 9.34253,1.97742 2.19531,-1.47851 -5.41444,-2.61808 -12.36165,-4.1203 -18.49023,-4.15039 z m 24.7207,36.66015 -2.34375,4.97852 c -1.28887,2.73744 -4.32898,7.33494 -6.75586,10.2168 l -4.41211,5.24023 3.61719,12.92188 3.61719,12.91992 2.39453,-17.60742 c 1.31713,-9.68468 2.72929,-20.09709 3.13867,-23.13868 l 0.74414,-5.53125 z m -81.41211,6.99024 c -0.1494,-0.0129 -0.24357,0.0637 -0.27344,0.23828 -0.51866,3.03708 -8.03462,87.74462 -7.93945,89.48047 0.12284,2.23912 3.53768,-13.23636 10.98438,-49.78125 l 5.98828,-29.39063 -4.37891,-5.96484 c -2.044,-2.78451 -3.73343,-4.52597 -4.38086,-4.58203 z m 81.99805,5.27929 c -0.2168,0.0146 -1.45408,8.24838 -2.81055,18.74415 l -2.54492,19.69921 3.23047,11.35938 c 2.32635,-1.93565 4.662,-3.86383 7.00977,-5.78516 -0.0222,-0.20866 -0.0402,-0.38446 -0.0625,-0.59375 -2.48758,-23.33136 -4.64977,-42.8617 -4.80469,-43.40039 -0.005,-0.0168 -0.0106,-0.0239 -0.0176,-0.0234 z m -70.18555,7.16993 c -0.088,0.088 0.2222,0.71246 0.85547,1.94726 0.72865,1.42082 1.62731,2.2809 1.99805,1.91016 0.37074,-0.37074 -0.22481,-1.53391 -1.32422,-2.58399 -0.95547,-0.91259 -1.44133,-1.3614 -1.5293,-1.27343 z m 53.64258,2.00976 c -0.99759,-0.22252 -0.67275,8.06448 0.4082,26.20899 0.86974,14.5994 1.64297,20.49085 2.98438,22.76172 0.13098,0.22172 0.25889,0.40525 0.38867,0.60742 0.92926,-0.79175 1.856,-1.58319 2.79102,-2.375 0.31459,-1.81342 0.6651,-3.96666 1.01367,-6.35938 l 1.50195,-10.30859 -4.08984,-15.20703 c -2.64477,-9.83377 -4.22215,-15.15505 -4.99805,-15.32813 z m -54.87695,0.11914 c -0.4146,0 -1.56276,4.10637 -2.55274,9.125 -0.99,5.01864 -4.56908,22.56368 -7.95312,38.98828 -3.38404,16.42459 -6.15606,30.48374 -6.16016,31.24415 -0.0177,3.33352 2.18075,0.51845 9.58789,-12.2754 l 7.90821,-13.6582 1.33984,-23.38281 c 1.06779,-18.61315 1.06044,-24.06322 -0.0371,-26.71289 -0.75835,-1.83083 -1.71819,-3.32813 -2.13281,-3.32813 z m 11.98437,4.00196 c -0.76236,0.0261 -1.08869,0.5889 -1.43359,1.875 -0.35681,1.33048 -0.65575,3.29732 -0.66406,4.37109 -0.0157,2.14931 6.39937,14.09383 7.55664,14.06836 0.39817,-0.008 2.09274,-2.49618 3.76562,-5.5293 1.68807,-3.06071 3.04102,-7.23859 3.04102,-9.38672 0,-3.67215 -0.19439,-3.86914 -3.79883,-3.86914 -2.08952,0 -5.02596,-0.46702 -6.52539,-1.03711 -0.86965,-0.33064 -1.48399,-0.50784 -1.94141,-0.49218 z m 33.36914,0.37695 c -0.95901,-0.0197 -2.28153,0.21819 -3.98437,0.67578 -1.94138,0.52171 -2.21178,1.43062 -2.05078,6.89844 0.10197,3.46325 0.23771,6.45068 0.30078,6.63867 0.35097,1.0457 2.49688,-1.53594 5.0039,-6.02148 3.2137,-5.74992 3.6075,-8.13219 0.73047,-8.19141 z m 1.57032,7.68164 -2.60938,4.78711 -2.60937,4.78516 3.16211,5.25781 3.1621,5.25586 0.31641,-4.1836 c 0.1744,-2.30078 -0.0743,-6.82045 -0.55273,-10.04296 L 532.66602,478.25 Z m -36.5,4.49414 -0.71875,5.82422 c -0.39607,3.20348 -0.75827,8.31388 -0.80469,11.35547 l -0.0859,5.52929 3.77148,-6.05468 3.76954,-6.05664 -2.9668,-5.29883 -2.96484,-5.29883 z m 13.67187,0.79883 -2.6543,4.32031 c -1.45951,2.3754 -2.66854,4.6625 -2.6875,5.08399 -0.0309,0.68868 4.37024,8.64347 4.77539,8.63085 0.0921,-0.004 0.25741,-4.06164 0.36719,-9.01953 l 0.19922,-9.01562 z m 16.33984,7.33789 c -0.0507,-0.009 -0.0943,-0.009 -0.13281,0.004 -0.67847,0.22546 -1.24204,7.4081 -1.42578,18.1914 l -0.30273,17.81836 2.45898,4.06445 c 2.99393,-2.64739 6.05007,-5.31074 9.14063,-7.99218 l -1.09766,-19.72461 -3.82617,-6.36524 c -1.97312,-3.28182 -4.05406,-5.85584 -4.81446,-5.99609 z m -23.04687,3.83984 -4.69727,8.24219 -4.69921,8.24219 -0.76563,17.58594 -0.76758,17.58593 8.3418,-14.86133 c 7.56077,-13.46882 8.34375,-15.42894 8.34375,-20.91796 0,-4.5278 -0.72758,-7.29386 -2.87891,-10.96485 l -2.87695,-4.91211 z m 48.05273,7.33203 c -0.21991,0.21991 -0.98646,4.37327 -1.72656,9.3125 1.27703,-1.07606 2.55395,-2.15237 3.83985,-3.22656 -1.19539,-3.84044 -2.00144,-6.19778 -2.11329,-6.08594 z m -9.32617,13.35547 0.36914,2.09571 c 0.22726,-0.19454 0.45596,-0.38941 0.6836,-0.58399 l -1.05274,-1.51172 z m -33.3789,6.17578 c -0.22453,0.25348 -3.42529,5.81018 -7.11133,12.34961 l -6.70117,11.89063 7.10937,0 7.11133,0 0,-12.35156 c 0,-6.79289 -0.18362,-12.14212 -0.4082,-11.88868 z m -22.17383,2.25782 -5.97071,10.16211 c -8.35089,14.21439 -8.26878,13.40165 -1.23632,12.46875 3.28292,-0.43548 6.04669,-0.88563 6.14257,-0.99805 0.0959,-0.1124 0.37443,-5.0251 0.61915,-10.91797 l 0.44531,-10.71484 z m 38.52343,7.60351 c -0.0955,0 -0.18033,0.61837 -0.2539,1.47461 0.28559,-0.2537 0.56495,-0.50561 0.85156,-0.75976 -0.31134,-0.44054 -0.5308,-0.71485 -0.59766,-0.71485 z m -58.67382,13.65625 c -0.16765,-0.0254 -0.28324,0.3783 -0.31641,1.1836 -0.048,1.16594 0.21255,1.8187 0.58008,1.45117 0.36753,-0.36752 0.40749,-1.32073 0.0879,-2.11914 -0.1324,-0.33087 -0.25098,-0.5004 -0.35156,-0.51563 z m 26.27343,9.57032 c -0.4254,0 -1.01007,3.97586 -1.42187,9.17187 1.65826,-1.5906 3.34621,-3.20226 5.09766,-4.85937 -1.93932,-2.56318 -3.3926,-4.3125 -3.67579,-4.3125 z m -12.52148,0.0957 c -0.61184,-0.0195 -1.30362,-0.0173 -2.08594,0.002 -0.89407,0.022 -1.90563,0.0668 -3.05078,0.12305 l -6.78515,0.33203 6.90234,10.41992 5.5918,8.44336 c 0.72821,-0.72291 1.54555,-1.51432 2.30273,-2.25977 l 0.2832,-1.20507 c 0.70201,-2.99354 1.32443,-7.5733 1.38282,-10.17774 0.0967,-4.31354 -0.25813,-5.54125 -4.54102,-5.67773 z m 19.16211,1.41797 -2.44531,0.14648 0.89843,1.29883 c 0.50014,-0.47147 1.03985,-0.96912 1.54688,-1.44531 z m -33.83398,0.98047 c -0.60461,0.0582 -0.64379,1.34626 -0.30274,3.71875 1.00663,7.00239 2.51249,16.64909 3.88672,25.13085 2.90203,-3.08028 6.35219,-6.61468 10.23828,-10.49609 l -5.23828,-7.74414 c -4.99866,-7.38934 -7.57651,-10.7064 -8.58398,-10.60937 z m -1.07227,11.33203 -2.3457,25.27929 c 1.43553,-1.70995 3.26833,-3.76426 5.44726,-6.11132 l -3.10156,-19.16797 z"
       id="path2417"
       inkscape:connector-curvature="0" />
  </g>
</svg>
