<?xml version="1.0" encoding="UTF-8" standalone="no"?>
<!-- Created with Inkscape (http://www.inkscape.org/) -->

<svg
   xmlns:dc="http://purl.org/dc/elements/1.1/"
   xmlns:cc="http://creativecommons.org/ns#"
   xmlns:rdf="http://www.w3.org/1999/02/22-rdf-syntax-ns#"
   xmlns:svg="http://www.w3.org/2000/svg"
   xmlns="http://www.w3.org/2000/svg"
   xmlns:sodipodi="http://sodipodi.sourceforge.net/DTD/sodipodi-0.dtd"
   xmlns:inkscape="http://www.inkscape.org/namespaces/inkscape"
   width="291.11975mm"
   height="151.01395mm"
   viewBox="0 0 1031.5267 535.08878"
   id="svg5470"
   version="1.1"
   inkscape:version="0.91 r13725"
   sodipodi:docname="rings.svg">
  <defs
     id="defs5472" />
  <sodipodi:namedview
     id="base"
     borderopacity="1.0"
     inkscape:pageopacity="0.0"
     inkscape:pageshadow="2"
     inkscape:zoom="0.49497475"
     inkscape:cx="762.03578"
     inkscape:cy="345.33703"
     inkscape:document-units="px"
     inkscape:current-layer="layer1"
     showgrid="false"
     inkscape:window-width="1417"
     inkscape:window-height="756"
     inkscape:window-x="295"
     inkscape:window-y="219"
     inkscape:window-maximized="0"
     fit-margin-top="0"
     fit-margin-left="0"
     fit-margin-right="0"
     fit-margin-bottom="0" />
  <g transform="translate(-4.1071786,-426.22906)">
    <path fill="#ffffff" d="M 87.358909,954.51011 C 51.750869,941.37476 30.321169,912.28761 12.859249,853.38935 8.0456086,837.15318 4.1071786,816.71704 4.1071786,807.97567 l 0,-15.89333 15.4773104,16.56853 c 20.32165,21.75441 35.76223,25.44079 104.093021,24.85163 49.06223,-0.42263 68.52458,-3.62981 138.73949,-22.85998 158.0442,-43.28454 216.31196,-67.06195 296.57221,-121.02273 76.16139,-51.20498 100.11424,-82.16704 87.16738,-112.6746 -5.56428,-13.11156 -4.30244,-12.54437 11.66815,5.24513 34.35408,38.26664 52.47585,120.59925 34.28642,155.77366 -38.05662,73.5935 -240.31188,175.92122 -420.15606,212.57113 -61.34162,12.50062 -155.96109,14.5381 -184.596191,3.975 z M 787.31789,920.70284 C 768.20046,916.5557 736.40562,907.83485 716.66269,901.32318 677.47123,888.39693 591.0888,849.98016 591.0888,845.47679 c 0,-1.54415 11.61737,-10.60301 25.81632,-20.13081 14.199,-9.5278 38.18037,-29.26899 53.29202,-43.86931 l 27.4757,-26.54609 38.2035,15.75389 c 46.85191,19.32017 95.0938,31.6967 151.80966,38.94684 84.07725,10.74785 128.2014,-6.03365 143.1529,-54.4445 5.5177,-17.86538 5.7232,-17.25652 3.3778,10.00886 -5.4959,63.88808 -55.77399,138.02394 -105.48155,155.53404 -29.22712,10.29565 -93.88932,10.28335 -141.41726,-0.0261 z M 61.174839,819.80139 c -24.57071,-5.59306 -41.81701,-22.54892 -36.96889,-36.34638 12.04034,-34.26577 69.96377,-80.06611 158.399341,-125.24713 43.56325,-22.25613 150.29939,-66.07152 160.95298,-66.07152 1.62519,0 3.00856,7.94869 3.07421,17.6638 0.13044,19.30695 14.85564,55.40028 32.99467,80.87419 6.35358,8.92273 10.67368,16.89877 9.60024,17.72454 -1.07339,0.82578 -25.18634,9.45941 -53.58429,19.18591 -60.3345,20.66497 -128.86521,51.865 -173.56765,79.02029 -33.72361,20.48605 -56.04909,23.40587 -100.900611,13.1963 z m 883.189931,-26.3706 c 0,-10.27762 -68.65463,-78.67797 -109.37824,-108.97323 -22.79236,-16.95572 -65.59311,-43.30306 -95.11276,-58.54967 -35.81292,-18.49692 -58.89008,-34.36308 -69.35349,-47.68208 -30.57587,-38.92067 -92.37247,-51.48477 -191.26147,-38.8861 -31.99933,4.07678 -33.21995,3.77325 -39.40386,-9.79898 -8.43293,-18.50827 -7.8346,-51.88822 1.14204,-63.71081 22.34348,-29.42726 101.87201,-36.0742 182.7019,-15.27013 171.94713,44.25589 364.61802,179.36057 391.20531,274.32098 8.6959,31.05885 2.809,47.25041 -22.87222,62.9083 -18.49987,11.27939 -47.66721,14.73154 -47.66721,5.64172 z M 408.51022,707.63042 c -52.11001,-63.7122 -62.61529,-111.3838 -37.8294,-171.66511 26.62187,-64.74664 68.43201,-105.19568 112.6642,-108.99649 12.92556,-1.11066 18.60954,-0.95239 12.63102,0.35175 -68.44788,14.93108 -90.27981,55.80317 -61.53015,115.1921 12.98455,26.8225 75.12025,95.17255 105.0461,115.55203 10.40183,7.08365 18.90776,14.10225 18.90202,15.59688 -0.0304,8.07839 -101.8844,65.22018 -116.25301,65.22018 -4.43871,0 -19.57258,-14.06312 -33.63078,-31.25134 z m 135.61423,-60.45223 c -14.52458,-11.66702 -39.60161,-34.76162 -55.72669,-51.32137 l -29.31838,-30.10863 21.16586,-4.31171 c 11.64119,-2.37141 43.17763,-4.23675 70.08095,-4.14513 50.34737,0.17131 81.16095,9.61997 87.80067,26.92276 5.10413,13.30109 -16.08395,46.02231 -42.44447,65.54806 l -25.1496,18.6288 z" />
  </g>
</svg>
